<?xml version="1.0" encoding="UTF-8" standalone="no"?>
<svg
   xmlns:dc="http://purl.org/dc/elements/1.1/"
   xmlns:cc="http://creativecommons.org/ns#"
   xmlns:rdf="http://www.w3.org/1999/02/22-rdf-syntax-ns#"
   xmlns:svg="http://www.w3.org/2000/svg"
   xmlns="http://www.w3.org/2000/svg"
   xmlns:sodipodi="http://sodipodi.sourceforge.net/DTD/sodipodi-0.dtd"
   xmlns:inkscape="http://www.inkscape.org/namespaces/inkscape"
   inkscape:version="1.0 (4035a4fb49, 2020-05-01)"
   sodipodi:docname="background.svg"
   viewBox="0 0 748 1940"
   height="1940"
   width="748"
   id="svg4485"
   version="1.1">
  <metadata
     id="metadata4491">
    <rdf:RDF>
      <cc:Work
         rdf:about="">
        <dc:format>image/svg+xml</dc:format>
        <dc:type
           rdf:resource="http://purl.org/dc/dcmitype/StillImage" />
        <dc:title />
      </cc:Work>
    </rdf:RDF>
  </metadata>
  <defs
     id="defs4489">
    <clipPath
       clipPathUnits="userSpaceOnUse"
       id="clipPath18">
      <path
         d="M 0,3840 H 2048 V 0 H 0 Z"
         id="path16" />
    </clipPath>
  </defs>
  <sodipodi:namedview
     inkscape:document-rotation="0"
     inkscape:current-layer="svg4485"
     inkscape:window-maximized="1"
     inkscape:window-y="0"
     inkscape:window-x="1920"
     inkscape:cy="652.49436"
     inkscape:cx="-374.21062"
     inkscape:zoom="0.30981483"
     showgrid="false"
     id="namedview4487"
     inkscape:window-height="1080"
     inkscape:window-width="2560"
     inkscape:pageshadow="2"
     inkscape:pageopacity="0"
     guidetolerance="10"
     gridtolerance="10"
     objecttolerance="10"
     borderopacity="1"
     bordercolor="#666666"
     pagecolor="#ffffff" />
  <path
     inkscape:connector-curvature="0"
     id="path4495"
     d="m -375.68037,1937.2969 c -17.83184,-2.4805 -35.682,-11.3697 -42.17289,-21.0014 -1.6028,-2.3784 -3.32175,-7.2878 -3.81987,-10.9095 -0.98432,-7.1569 -2.07612,-8.5567 -7.72798,-9.9077 -2.4725,-0.5912 -5.04456,-2.977 -7.66667,-7.1116 -3.67129,-5.7891 -3.94592,-7.1194 -3.94592,-19.1146 0,-10.9014 0.41452,-13.4194 2.68407,-16.3048 2.04258,-2.5966 2.39712,-4.1533 1.48348,-6.513 -3.50331,-9.0486 -4.47307,-18.0262 -3.55595,-32.9192 0.5234,-8.4994 1.47907,-16.4388 2.12371,-17.6434 0.78337,-1.4637 0.0988,-5.0114 -2.06414,-10.6976 -1.77992,-4.679 -5.37446,-17.5074 -7.98789,-28.5074 -5.97292,-25.1403 -6.96684,-28.9998 -14.72445,-57.1774 -5.01568,-18.2182 -10.40083,-33.2974 -16.95954,-47.4893 -10.76822,-23.3004 -13.2102,-28.2861 -19.91848,-40.6667 -3.9735,-7.3333 -16.43694,-29.5333 -27.69653,-49.3333 -24.86044,-43.7171 -29.66401,-53.9865 -36.67593,-78.4085 -1.012,-3.5247 -2.4258,-7.1247 -3.1418,-8 -0.716,-0.8754 -2.8315,-6.0915 -4.70112,-11.5915 -7.03431,-20.6933 -8.54876,-24.3728 -18.93344,-46 -3.16911,-6.6 -6.38982,-14.4 -7.15714,-17.3333 -0.86828,-3.3194 -3.37301,-7.1854 -6.63288,-10.2376 -5.60257,-5.246 -13.42138,-18.1619 -16.81198,-27.7719 -1.14135,-3.2349 -2.53658,-6.2061 -3.1005,-6.6028 -0.56393,-0.3965 -3.64176,-7.6211 -6.83962,-16.0544 -3.19786,-8.4333 -6.6188,-16.5168 -7.60208,-17.9633 -0.98328,-1.4465 -1.78779,-3.5265 -1.78779,-4.6221 0,-1.0956 -2.93217,-8.0121 -6.51593,-15.37 -3.58376,-7.3578 -9.34324,-19.3779 -12.79884,-26.7113 -3.4556,-7.3333 -9.16188,-19.0333 -12.68062,-26 -29.92374,-59.2453 -38.75173,-76.3727 -41.02862,-79.6008 -1.44799,-2.0529 -3.81486,-6.1325 -5.25971,-9.0658 -1.44485,-2.9334 -6.58397,-12.873 -11.42028,-22.0882 -8.51916,-16.2326 -23.67352,-52.3404 -25.54689,-60.8698 -1.21382,-5.5265 -3.09612,-6.9007 -12.34034,-9.0094 -10.1966,-2.326 -45.71352,-7.8558 -46.28581,-7.2066 -0.24593,0.279 0.0483,7.7073 0.65383,16.5073 0.60553,8.8 1.74013,50.5 2.52133,92.6667 0.78119,42.1666 2.0676,89.8666 2.85868,106 1.63939,33.4334 1.10393,48.5503 -2.12524,60 -2.15468,7.6397 -2.12945,9.1706 0.56001,34 1.54896,14.3 3.42074,29.6 4.15952,34 8.58075,51.1049 9.91582,74.6656 7.97094,140.6666 -0.83196,28.2334 -1.81067,52.741 -2.1749,54.4614 -0.80169,3.7869 1.59672,43.3673 3.52702,58.2053 2.70441,20.7887 7.697,50.906 12.6965,76.5905 3.40432,17.4894 4.11927,28.0762 1.89602,28.0762 -2.91394,0 -1.10252,3.7721 2.53496,5.2788 7.53832,3.1224 9.66157,6.9181 11.74232,20.9912 1.73705,11.7485 1.70869,14.4242 -0.28187,26.5854 -2.02332,12.3615 -2.03228,13.8724 -0.1044,17.6006 2.70004,5.2213 2.85509,23.8438 0.25043,30.0777 -2.20888,5.2865 -9.41795,11.1133 -15.99764,12.93 -3.75722,1.0375 -5.24435,2.4627 -7.22195,6.9213 -4.45589,10.0463 -17.64337,20.754 -31.58856,25.6486 -21.13369,7.4177 -70.30015,5.263 -85.66667,-3.7542 -4.09361,-2.4021 -5.72788,-6.5936 -3.18396,-8.1657 0.63215,-0.3907 0.85863,-6.2761 0.50327,-13.0787 -0.90609,-17.3456 1.63,-26.4084 11.37947,-40.6653 4.19901,-6.1403 9.47525,-14.4513 11.72497,-18.4689 2.24973,-4.0178 6.54387,-9.839 9.54252,-12.9362 2.99865,-3.0972 7.93496,-10.7024 10.96957,-16.9004 6.78068,-13.8489 7.35536,-14.5545 14.3975,-17.6766 6.4377,-2.8543 6.95548,-4.0391 2.62702,-6.0112 -5.47578,-2.495 -6.63762,-10.9806 -8.9968,-65.7098 -1.27964,-29.6853 -2.00704,-38.1661 -5.43224,-63.3333 -2.23206,-16.4005 -7.86182,-51.2955 -9.35741,-58 -2.8188,-12.6364 -3.86771,-17.1697 -7.71248,-33.3333 -9.44923,-39.7251 -9.81719,-41.4254 -13.56179,-62.6667 -2.27942,-12.9301 -4.06824,-27.0784 -4.6359,-36.6667 -0.30392,-5.1333 -1.1989,-13.8333 -1.98884,-19.3333 -2.10734,-14.6721 -3.53915,-55.9753 -2.34968,-67.7804 1.17761,-11.6876 0.56061,-18.3579 -2.91863,-31.5529 -3.35792,-12.735 -5.27865,-21.3102 -6.71957,-30 -2.04723,-12.3462 -9.10122,-43.6968 -17.25031,-76.6667 -0.90628,-3.6667 -2.5557,-9.6667 -3.66537,-13.3333 -1.10967,-3.6667 -2.805,-10.8667 -3.7674,-16 -0.96239,-5.1334 -2.69784,-12.6334 -3.85656,-16.6667 -3.22674,-11.2319 -6.55727,-27.1056 -14.07009,-67.0596 -0.66116,-3.5162 -1.61472,-7.6931 -2.11903,-9.282 -2.87818,-9.0684 -6.24195,-37.19 -8.57144,-71.6584 -0.91687,-13.5667 -2.10187,-25.1496 -2.63333,-25.7398 -2.07399,-2.3032 -18.11064,-4.933 -28.85798,-4.7324 -11.176,0.2087 -11.3557,0.1598 -16.2316,-4.41131 -2.7118,-2.54228 -6.5805,-5.32064 -8.5972,-6.17416 -3.6473,-1.54362 -4.169,-2.9427 -3.7075,-9.94233 0.227,-3.4416 -0.093,-3.66667 -5.2101,-3.66667 -2.9986,0 -6.6803,0.75 -8.1817,1.66667 -2.3025,1.4058 -3.008,1.29176 -4.5075,-0.72864 -3.373,-4.54461 -2.5402,-6.03307 33.3898,-59.67817 12.55187,-18.74042 23.06053,-34.64042 23.35261,-35.33334 1.36254,-3.2324 46.4764,-70.48414 53.61635,-79.92652 18.03367,-23.84897 31.68885,-37.96516 49.70672,-51.38481 12.39589,-9.23243 12.56891,-16.92253 0.53864,-23.94183 -5.64645,-3.29453 -6.02148,-3.87464 -6.41035,-9.91561 -0.43828,-6.80864 0.57288,-9.99852 8.37336,-26.41495 2.69803,-5.67812 4.70539,-11.36305 4.46078,-12.63317 -1.10462,-5.73583 -10.97155,-6.88151 -35.95668,-4.17505 -15.99738,1.73286 -39.40946,-0.0999 -44.5835,-3.48999 -3.30293,-2.16416 -4.72091,-9.67963 -3.02721,-16.04459 0.58541,-2.2 1.43057,-8.05 1.87813,-13 0.58249,-6.44241 1.34471,-9 2.68221,-9 1.02766,0 2.14975,-1.35 2.49354,-3 2.21925,-10.6513 5.10523,-21.29474 7.41535,-27.34764 3.41165,-8.93905 3.37058,-12.07558 -0.20797,-15.88478 -2.65204,-2.82298 -2.75207,-3.52978 -1.23867,-8.7526 0.90549,-3.12491 3.10375,-8.69115 4.88502,-12.36944 1.78127,-3.6783 3.23867,-7.48451 3.23867,-8.45827 0,-0.97375 1.83352,-7.67216 4.07448,-14.88535 5.73145,-18.4483 11.6765,-25.51398 27.93825,-33.20457 11.86194,-5.60981 17.14668,-6.22219 24.73378,-2.86607 3.44253,1.5228 6.78286,2.76872 7.42298,2.76872 0.64011,0 1.16804,-3.45 1.17319,-7.66666 0.0215,-17.6042 11.04357,-49.62664 23.19652,-67.39255 1.90344,-2.78256 3.4608,-5.34449 3.4608,-5.69316 0,-0.34868 1.59969,-3.16804 3.55488,-6.26525 2.52641,-4.00208 3.70763,-7.9217 4.08284,-13.54792 0.82065,-12.30568 3.07648,-16.40563 9.98343,-18.14482 5.4308,-1.36749 5.96881,-1.93001 8.64664,-9.0406 6.19152,-16.4407 8.0391,-37.41464 6.03949,-68.56081 l -1.26124,-19.64511 -5.21387,-5.68822 c -9.62812,-10.5041 -17.34646,-21.60694 -23.18726,-33.3549 -4.10511,-8.25684 -6.50835,-11.66666 -8.22264,-11.66666 -2.01398,0 -2.42227,1.11046 -2.42227,6.58797 0,13.47331 -5.59795,9.00931 -11.60548,-9.25464 -3.45873,-10.51516 -3.72653,-12.87343 -3.70959,-32.66667 0.0208,-24.3614 2.90663,-41.86516 10.88111,-66 9.00848,-27.26428 18.78979,-43.244717 38.58629,-63.041222 7.12734,-7.127327 13.39746,-12.958775 13.93362,-12.958775 0.53616,0 5.08616,-2.514346 10.11112,-5.587438 16.96013,-10.372252 46.58202,-24.620635 59.90076,-28.812776 18.17246,-5.719883 34.90773,-8.266452 54.32456,-8.266452 26.47558,0 41.32682,3.819425 66.15313,17.013189 29.22935,15.533733 53.1762,46.151633 64.61225,82.611734 7.18408,22.90409 11.24175,43.25281 16.16611,81.07094 6.67933,51.29607 10.34475,62.49771 23.33775,71.32108 9.09982,6.17959 18.65306,10.17459 38.34098,16.0336 20.17656,6.00442 17.67318,7.26644 -14.03261,7.07422 -22.80564,-0.13827 -24.33333,0.007 -24.33333,2.30946 0,1.35136 2.14897,8.33148 4.77548,15.51139 2.62652,7.17991 5.97636,16.35439 7.44409,20.38772 1.46773,4.03333 4.33184,10.93333 6.36467,15.33333 2.03282,4.4 5.11198,11.6 6.84257,16 1.73057,4.4 4.59395,10.7 6.36304,14 1.76909,3.3 5.73379,10.8 8.81044,16.66667 3.07665,5.86667 8.78881,16.06667 12.69369,22.66667 3.90488,6.6 8.84183,15 10.97099,18.66666 2.12916,3.66667 5.12996,8.76667 6.66844,11.33334 4.15117,6.92546 26.39992,46.78345 26.39992,47.29469 0,0.24229 2.31183,5.45009 5.13739,11.57292 8.4955,18.4092 16.42472,43.84792 21.54844,69.13239 2.81057,13.86952 3.2129,44.77572 0.75204,57.76937 -2.3281,12.29257 -7.64011,26.23063 -9.99692,26.23063 -3.32448,0 -5.53119,-7.17795 -10.14082,-32.98586 -1.74032,-9.74356 -3.53021,-18.30773 -3.97753,-19.03152 -0.81143,-1.31292 -4.65593,-1.88004 -4.65593,-0.68681 0,3.20403 -6.46076,29.22003 -9.59562,38.63931 -3.976,11.94668 -10.98288,27.63865 -14.02013,31.39821 -4.78905,5.92795 -15.84641,21.34107 -22.23536,30.99439 -11.62773,17.5688 -34.01613,41.0563 -43.29496,45.4204 -2.55861,1.20338 -3.45251,1.0606 -4.7872,-0.76471 -2.23377,-3.05487 -3.57539,-47.30263 -2.56244,-84.51227 0.57535,-21.1347 0.20303,-36.54209 -1.35555,-56.0954 -1.18181,-14.82668 -2.14874,-27.57668 -2.14874,-28.33333 0,-0.75667 -0.9,-1.37575 -2,-1.37575 -1.1,0 -2,0.80363 -2,1.78586 0,7.53404 -4.50419,46.02472 -6.74403,57.6313 -5.34643,27.70462 -11.94511,44.0355 -32.29103,79.91618 -14.91312,26.2998 -18.8963,32.25358 -22.30114,33.33424 -2.03756,0.64669 -2.6638,2.01825 -2.6638,5.8341 0,2.74375 -0.84307,6.1416 -1.87347,7.55078 -1.79615,2.45636 -2.06969,2.46854 -6.62677,0.29542 -2.61432,-1.24668 -9.36072,-6.28496 -14.992,-11.19617 -11.57626,-10.09601 -16.27455,-11.38136 -20.86148,-5.70727 -2.04535,2.53012 -4.76478,3.55994 -12.66078,4.79447 -12.84582,2.00845 -15.2829,4.24704 -16.01353,14.70931 -0.45201,6.47269 0.1252,9.19064 3.57652,16.8398 2.26355,5.01674 5.28116,10.60321 6.70581,12.41436 1.42466,1.81114 3.28606,6.70653 4.13646,10.87864 0.8504,4.1721 2.74368,9.55081 4.20729,11.95268 2.56571,4.2105 5.22119,12.45037 7.61625,23.63297 0.62826,2.93333 2.73896,13.04163 4.69046,22.46289 1.9515,9.42126 4.35576,19.62126 5.34281,22.66667 1.91132,5.89716 8.29856,26.63037 13.61776,44.20377 1.77575,5.86667 3.75239,11.86667 4.39252,13.33334 0.64013,1.46666 2.72615,6.74085 4.63559,11.72041 3.02477,7.88824 12.95212,30.50077 23.82978,54.27962 6.96167,15.2183 14.27678,33.7348 14.27678,36.1382 0,2.8708 -13.18236,9.939 -25.66667,13.7622 -8.77365,2.6868 -8.82424,2.8393 -5.11869,15.4371 1.4014,4.7644 4.401,14.9625 6.6658,22.6625 2.26478,7.7 6.24322,21.2 8.84097,30 2.59775,8.8 5.37925,18.4 6.18112,21.3333 0.80187,2.9333 1.96164,7.1333 2.57728,9.3333 0.61564,2.2 2.07691,7.9 3.24727,12.6667 1.17036,4.7667 4.78046,19.4667 8.02245,32.6667 3.242,13.2 6.46585,25.8 7.16413,28 0.69827,2.2 2.55438,9.0998 4.12468,15.3329 1.57031,6.2331 5.57914,20.0331 8.9085,30.6667 3.32937,10.6335 6.53678,21.1337 7.12761,23.3337 0.59081,2.2 2.93117,10.2094 5.20079,17.7987 2.26962,7.5893 4.50136,17.3844 4.95942,21.7669 0.54087,5.1748 1.90878,9.4521 3.90199,12.2013 6.00265,8.2791 14.31429,22.6635 32.49293,56.2331 1.98558,3.6667 7.98968,16.2652 13.34246,27.9967 5.35277,11.7316 10.48189,22.5316 11.39806,24 3.40414,5.4564 12.81436,35.43 21.34968,68.0033 4.42152,16.8739 14.03847,52.7284 19.84838,74 2.70398,9.9 5.79549,21.3 6.87001,25.3333 1.07452,4.0334 6.50124,20.8334 12.05939,37.3334 9.4609,28.0858 12.34413,36.2381 23.93184,67.6669 2.50105,6.7835 4.94314,15.7011 5.42688,19.8168 l 0.87949,7.4832 -4.4014,-0.9667 c -3.93289,-0.8638 -4.29725,-0.7024 -3.42299,1.5166 0.53812,1.3657 1.88904,6.3832 3.00204,11.1498 1.113,4.7667 2.24396,9.4167 2.51326,10.3334 0.26929,0.9166 1.93518,1.6666 3.70197,1.6666 5.40175,0 12.53289,3.7342 16.12512,8.4439 1.87709,2.4609 3.41289,5.1005 3.41289,5.8657 0,2.0231 9.36763,15.3894 12.20766,17.4186 3.4167,2.4412 9.12568,12.5909 9.12568,16.2241 0,3.3052 4.51625,12.6621 13.21576,27.3811 9.41745,15.9336 12.52673,29.6706 9.32545,41.2004 -1.068,3.8465 -1.03757,5.9598 0.11693,8.1169 2.8364,5.2999 1.18972,10.3281 -4.40722,13.4577 -9.66831,5.4063 -47.34598,8.6704 -67.5842,5.8552 z m -404.10396,-1560.08425 10.42778,-4.12066 0.8265,-6.87934 c 1.37555,-11.44921 1.03659,-19.5487 -0.81698,-19.52172 -0.91667,0.0133 -4.36667,1.8563 -7.66667,4.09546 -3.3,2.23916 -7.60133,4.3935 -9.55852,4.78744 -4.04077,0.81332 -4.52469,2.14216 -5.86047,16.09284 -0.67605,7.06073 -0.5015,9.66666 0.64751,9.66666 0.86519,0 6.26557,-1.8543 12.00085,-4.12068 z"
     style="fill:#d7d7d7;fill-opacity:1;stroke-width:1.33333" />
  <g
     transform="matrix(0.60322039,0,0,-0.60322039,-227.80548,2128.2246)"
     id="g12">
    <g
       id="g14"
       clip-path="url(#clipPath18)">
      <g
         id="g20"
         transform="translate(1478.1123,2649.459)">
        <path
           d="m 0,0 c -4.931,14.13 -11.01,27.85 -16.391,41.82 -6.21,16.13 -13.5,31.88 -17.049,48.94 -3.05,14.66 -6.331,29.28 -9.29,43.96 -3.14,15.63 -8.52,30.74 -9.48,46.92 -0.46,7.81 -2.96,15.67 -5.8,23.19 -2.12,5.59 -5.381,10.18 -11.511,11.4 -4.25,0.85 -5.25,3.41 -5.349,7.05 -0.05,2 -0.13,4 -0.34,5.99 -1.27,12.22 -1.21,24.65 -4.8,36.54 -1.841,6.11 -5.051,10.48 -11.511,13.89 -6.309,3.32 -14.239,6.38 -16.79,15.19 -1.379,4.77 -6.059,6.91 -11.33,6.19 -2.909,-0.4 -5.779,-1.02 -8.67,-1.55 -1.879,3.8 -0.629,7.4 -0.269,10.98 1.83,18.26 2.33,36.54 0.439,54.83 -0.369,3.64 -0.799,7.8 -5.38,8.53 -4.679,0.75 -8.519,-1.1 -10.54,-5.68 -2.419,-5.49 -4.439,-11.11 -5.91,-16.95 -4.389,-17.48 -6.59,-35.3 -8.679,-53.15 -0.29,-2.49 1.14,-6.05 -2,-7.08 -3.6,-1.17 -4.64,2.91 -6.6,4.88 -1.391,1.4 -2.37,3.21 -3.59,4.79 -10.96,14.25 -21.94,28.48 -32.92,42.72 -3,3.88 -6.421,7.1 -11.801,5.09 -3.449,-1.29 -5.149,-6.59 -3.75,-12.43 1.081,-4.5 2.821,-8.87 4.531,-13.2 5.16,-13.05 12.139,-25.17 19.34,-37.17 2.009,-3.35 3.15,-5.77 -0.04,-9.61 -7.17,-8.6 -14.741,-17.36 -12.8,-30.04 0.11,-0.74 -0.611,-1.94 -1.29,-2.42 -1.25,-0.86 -2.42,-0.23 -3.401,0.87 -9.55,10.66 -22.439,14.97 -35.609,18.81 -5.57,1.62 -11.28,2.99 -16.55,6.24 0.94,1.82 1.5,3 2.14,4.15 4.76,8.49 4.059,12.16 -3.66,17.52 -5.54,3.84 -11.741,6.16 -18.27,7.74 -17.2,4.17 -34.71,6.12 -52.261,7.85 -19.21,1.89 -38.359,4.52 -57.729,4.33 -5.09,-0.05 -9.66,1.02 -11.22,7.59 6.19,1.76 12.23,2.11 17.779,4.37 5.231,2.14 10.561,4.05 15.92,5.85 5.361,1.79 9.691,6.59 16.12,6.15 -0.899,-7.51 -6.33,-12.06 -9.029,-17.73 2.159,-3.11 4.97,-2.54 7.56,-2.34 12.98,1.03 25.719,3.19 37.79,8.43 4.08,1.77 8.41,6.02 12.3,-0.68 0.44,-0.75 3.15,-0.28 4.79,-0.19 6.41,0.33 12.45,2.21 18.179,4.96 4.5,2.15 8.811,4.68 13.231,7 1.7,0.9 3.62,2.37 5.23,0.16 1.48,-2.03 -0.12,-3.64 -1.301,-5.25 -2.04,-2.79 -5.629,-4.4 -6.839,-8.15 12.73,-2.08 23.53,1 32.929,10.37 15.881,15.85 25.281,34.89 26.691,57.58 0.2,3.19 -1.071,6.65 1.73,9.98 5.989,-7.73 2.1,-16.89 4.26,-24.9 8.04,1.22 9.17,1.62 12.29,10.61 10.62,30.61 11.79,61.92 5.54,93.55 -5.79,29.3 -17.391,56.64 -30.101,83.37 -16.729,35.17 -33.62,70.24 -49.069,106 -2.2,5.1 -1.75,7.87 2.33,11.91 20.94,20.68 33.449,45.24 32.93,75.47 -0.45,26.48 -11.04,47.74 -32.71,62.92 -24.12,16.89 -58.08,11.19 -72.72,-11.43 -1.87,-2.88 -3.58,-6.15 -7.2,-8.59 -2.561,9.59 -2.78,18.45 -1.49,27.37 1.3,8.9 2.63,17.8 4.12,26.67 0.84,5.02 0.63,9.97 -0.42,14.89 -2.47,11.58 -9.88,14.78 -19.79,8.2 -9.231,-6.13 -13.641,-15.41 -14.54,-26.13 -0.92,-10.98 -0.32,-21.93 3.67,-32.47 0.75,-1.97 2.559,-4.06 0.44,-7.38 -20.1,8.74 -39.99,18.6 -62.631,20.12 -22.679,1.52 -45.019,1.36 -67.469,-3.41 -21.99,-4.67 -43.04,-11.36 -62.86,-21.95 -20.16,-10.77 -36.73,-25.9 -51.78,-43.05 -2.44,2.24 -2.06,5 -2.56,7.49 -2.64,13.23 -7.23,25.62 -15.99,36.13 -4.09,4.92 -8.76,9.1 -15.14,10.96 -7.41,2.16 -13.05,0.01 -16.82,-6.68 -5.44,-9.66 -2.4,-18.83 2.35,-27.44 3.85,-6.97 8.78,-13.34 13.15,-20.03 1.02,-1.57 2.69,-3.36 0.61,-5.23 -1.59,-1.44 -3.16,-0.1 -4.44,0.76 -6.08,4.07 -13.02,5.34 -20,5.27 -27.37,-0.3 -56.25,-21.9 -62.38,-49.05 -6.68,-29.61 -3.83,-58.53 13.72,-84.28 11.02,-16.17 25.21,-28.37 46.47,-28.61 5.55,-0.07 6.07,-0.92 4.93,-6.75 -1.53,-7.84 -3.61,-15.54 -6.17,-23.13 -9.78,-29 -20.38,-57.73 -28.06,-87.41 -8.87,-34.29 -15.97,-68.76 -14.9,-104.48 0.58,-19.45 3.78,-38.43 9.52,-56.96 3.93,-12.65 17.29,-25.81 30.51,-23.93 -11.02,24.03 -6.43,48.27 -1.69,72.92 2.65,-1.19 2.95,-2.88 3.3,-4.48 3.75,-16.9 12.24,-31.5 21.75,-45.67 8.06,-12 18.73,-20.59 32.11,-25.95 18,-7.2 36.36,-10.74 55.61,-5.7 3.21,0.84 7.82,1.45 7.81,5.04 -0.02,5.14 2.83,4.3 5.64,4.23 3.32,-0.08 6.6,-0.15 9.94,0.05 17.08,1.01 32.73,6.6 48.03,14.53 -0.55,2.17 -2.71,2.71 -4.15,3.9 -1.37,1.14 -2.5,2.37 -1.31,4.14 0.84,1.26 2.24,1 3.58,0.7 8.82,-1.98 17.84,-1.98 26.79,-2.7 4.12,-0.32 5.94,-1.68 5.48,-6.15 -0.69,-6.81 -0.91,-7.36 -8,-8.87 -15.6,-3.33 -31.33,-6.17 -46.79,-10.05 -22.89,-5.75 -45.88,-11.23 -68.21,-19 -5.32,-1.85 -11.04,-2.38 -16.1,-5.16 -8.32,-4.58 -12.03,-12.01 -8.57,-20.81 4.51,-11.49 4.73,-11.92 -7.32,-18.17 -1.48,-0.76 -2.95,-1.54 -4.38,-2.38 -10.57,-6.21 -13.94,-13.69 -9.36,-25.01 2.15,-5.34 0.98,-8.73 -1.81,-12.68 -5.76,-8.16 -11.55,-16.3 -17.15,-24.56 -7.1,-10.46 -14.65,-20.74 -17.05,-33.58 -2.62,-14.07 -5.99,-28.07 -7.56,-42.26 -4.69,-42.42 -12.56,-84.33 -19.61,-126.36 -3.03,-18.05 -8.76,-35.72 -10.71,-53.84 -4.5,-41.81 -16.77,-82.13 -22.2,-123.72 -0.17,-1.31 -0.71,-2.56 -0.97,-3.87 -6.9,-34.78 -10.43,-69.75 -7.11,-105.27 1.09,-11.69 5.33,-20.58 15.04,-27.68 11.44,-8.36 18.49,-19.64 18.72,-34.67 0.16,-9.74 3.41,-19.04 7.6,-27.78 6.66,-13.92 16.16,-25.26 31.37,-30.32 3.97,-1.32 5,-3.48 4.98,-7.28 -0.05,-7.58 2.7,-14.23 7.19,-20.34 2.55,-3.46 4.33,-7.48 6.64,-11.13 8.86,-14.01 8.89,-27.07 -2.38,-40.24 -5.76,-6.74 -4.71,-14.96 0.76,-22.08 3.25,-4.22 6.49,-8.53 10.34,-12.17 5.26,-4.98 5.97,-10.36 4.37,-17.18 -4.04,-17.16 -7.76,-34.36 -9.2,-52.07 -0.71,-8.77 1.67,-17.28 0.66,-25.79 -2.4,-20.2 -2.75,-40.56 -5.07,-60.74 -4.12,-35.72 -6.53,-71.61 -11.35,-107.249 -3.65,-26.981 -6.13,-54.131 -10.52,-80.981 -9.19,-56.15 -19.12,-112.18 -29.08,-168.2 -7.64,-42.94 -14.65,-85.99 -23.99,-128.63 -7.14,-32.61 -17.64,-64.09 -30.55,-94.8 -8.25,-19.63 -17.63,-38.82 -25.17,-58.71 -12.04,-31.74 -22.04,-64.19 -31.53,-96.8 -13.8,-47.37 -24.26,-95.51 -32.33,-144.129 -6.59,-39.771 -9.86,-80 -11.92,-120.231 -2.68,-52.229 -9.04,-104.25 -8.91,-156.64 0.01,-5.01 -1.53,-8.82 -6.22,-11.45 -4.26,-2.389 -6.17,-6.58 -7.02,-11.46 -4.74,-27.179 -7.25,-54.7 -12.69,-81.77 -4.58,-22.79 -6.22,-46.12 -12.08,-68.67 -3.61,-13.939 -6.05,-27.84 -5.25,-42.38 0.46,-8.41 2.55,-16.38 3.87,-24.559 3.13,-19.391 5.85,-38.84 9,-58.221 4.98,-30.579 12.77,-60.489 21.97,-90.04 10.49,-33.67 32.1,-57.28 64.91,-69.69 19.03,-7.2 39.12,-10.25 59.66,-10.38 13.36,-0.08 26.59,1.13 39.83,2.34 15.22,1.401 30.36,3.04 44.36,10.37 9.1,4.77 14.15,11.09 14.75,21.71 0.95,16.63 0.08,33.281 1.1,49.89 0.46,7.45 -0.88,14.46 -2.83,21.61 -3.92,14.29 -11.65,26.77 -17.63,40.09 -10.18,22.651 -22.34,44.55 -28.19,69.04 -2.46,10.33 -6.13,20.37 -9.02,30.611 -7.22,25.62 -12.3,51.779 -20.04,77.269 -7.28,23.96 -11.01,48.62 -13.74,73.45 -0.32,2.98 -0.84,6.06 0.53,8.87 1.97,4.02 0.87,7.68 -2.39,9.69 -4.62,2.85 -4.65,6.32 -3.9,10.9 0.65,3.96 1.32,7.85 2.62,11.651 3.9,11.319 7.85,22.619 9.81,34.519 0.5,3.03 0.74,5.8 0,8.8 -2.58,10.53 -10.85,13.73 -20,15.34 -5.18,0.91 -10.56,0.73 -16.52,1.091 -0.53,10.529 -0.48,20.809 1.12,31.019 6.82,43.441 15.67,86.45 26.75,129.03 14.42,55.451 30.2,110.43 51.92,163.55 8.2,20.02 17.24,39.71 25.16,59.8 10.02,25.41 21.82,50.01 32.05,75.311 10.72,26.5 23.73,52.059 35.32,78.209 8.36,18.86 15.87,38.07 20.16,58.371 3.1,14.639 6.96,29.109 10.43,43.659 11.43,47.92 22.27,95.98 33.3,143.99 7.53,32.78 18.06,64.75 26.53,97.28 7.87,30.23 16.1,60.37 23.83,90.65 5,19.631 8.6,39.65 14.26,59.08 5.59,19.15 11.72,38.15 16.58,57.511 4.13,16.459 8.03,32.999 11.45,49.619 1.1,5.34 3.269,7.43 8.53,7.15 6.31,-0.33 12.65,-0.09 18.96,-0.47 31.22,-1.88 62.449,-3.78 93.739,-3.74 10.361,0.01 10.561,0.05 11.011,-10.39 1.18,-27.29 2.42,-54.57 3.29,-81.86 1.55,-48.92 2.73,-97.86 4.31,-146.78 1.26,-38.96 -0.93,-77.96 1.8,-116.93 1.21,-17.26 0.21,-34.66 0.75,-51.98 1.339,-42.96 4.69,-85.84 3.85,-128.89 -0.28,-14.649 -1.6,-29.24 -1.14,-43.93 0.65,-20.69 2.49,-41.23 5.11,-61.74 3.29,-25.79 4.04,-51.84 6.84,-77.67 5.38,-49.7 8.969,-99.47 8.929,-149.48 -0.029,-25.659 0.821,-51.38 -0.609,-76.98 -1.27,-22.599 -1.28,-45.23 -2.601,-67.83 -1.109,-19.22 -0.149,-38.55 -2.16,-57.8 -1.929,-18.53 -4.439,-36.969 -7.069,-55.41 -0.74,-5.21 -2.92,-7.809 -8.08,-9.55 -8.79,-2.96 -17.141,-7.07 -24.771,-12.68 -5.5,-4.03 -7.5,-8.829 -6.909,-15.409 0.55,-6.151 3.07,-11.541 5.53,-16.991 4.78,-10.61 11.62,-20.19 15.53,-31.25 3.32,-9.4 2.38,-12.86 -5.571,-19.03 -5.969,-4.63 -7.169,-9.53 -2.339,-15.32 3.06,-3.67 3.11,-6.71 2.12,-10.89 -1.99,-8.4 -3.861,-16.769 -7.71,-24.6 -2.56,-5.22 -3.79,-10.919 -5.41,-16.51 -6.83,-23.63 -12.26,-47.68 -20.281,-70.97 -4.549,-13.2 -8.889,-26.47 -13.25,-39.729 -3.409,-10.401 -5.439,-21.491 -10.309,-31.141 -10.81,-21.45 -18.47,-44.12 -27.56,-66.22 -1.511,-3.67 -3.4,-7.53 -3.52,-11.349 -0.73,-23.62 -1.75,-47.301 3.25,-70.661 3,-14.02 11.19,-23.61 24.509,-29.29 30.071,-12.83 60.821,-15.799 92.75,-8.33 26.661,6.23 48.911,18.93 64.291,42.09 7.589,11.43 12.74,24.071 16.49,37.271 5.03,17.739 7.13,35.929 7.46,54.259 0.87,48.61 4.46,97.21 1.139,145.86 -1.429,20.98 -0.219,41.98 -0.38,62.97 -0.229,31.31 0.011,62.621 0.09,93.92 0.031,11.701 3.101,23.03 4.241,34.59 3.2,32.151 6.91,64.27 12.36,96.08 7.17,41.93 11.97,84.16 16.72,126.35 5.86,52 7.889,104.32 7.799,156.681 -0.04,20.319 -0.16,40.639 -0.569,60.969 -0.591,29.991 -0.31,59.991 -0.37,89.991 -0.061,28.979 0.99,57.909 3.26,86.83 2.17,27.579 6.98,54.819 9.55,82.329 1.66,17.9 3.02,35.85 5.25,53.68 2.85,22.79 6.98,45.42 9.6,68.22 4.409,38.38 8,76.86 12.05,115.28 3.67,34.8 4.269,69.76 5.54,104.68 1.22,33.58 1.63,67.19 2.029,100.8 0.171,14.65 -0.38,29.32 -1,43.97 -0.349,8.18 0.211,15.77 5.62,22.56 1.96,2.48 2.871,6 3.621,9.2 2.74,11.7 4.509,23.52 4.11,35.61 -0.28,8.32 -0.2,16.66 -0.231,24.99 -0.009,2.98 -0.089,5.88 1.801,8.6 8.93,12.85 12.8,27.76 16.369,42.62 6.451,26.81 2.811,52.89 -6.819,78.43 -11.29,29.96 -20.83,60.35 -24.3,92.46 -2.9,26.79 -8.56,53.31 -6.2,80.52 0.79,9.17 1.29,10.59 10.56,9.53 30.15,-3.46 65.57,25.05 72.48,49.69 2.25,8 5.18,15.81 7.859,23.69 3.241,9.5 5.79,19.25 6.08,29.25 0.471,16.55 4.781,32.18 9.471,47.85 1.989,6.65 4.59,13.11 5.29,20.22 1.69,16.88 4.06,33.66 6.9,50.42 C 6.21,-30.31 5.12,-14.7 0,0"
           style="fill:#43396e;fill-opacity:1;fill-rule:nonzero;stroke:none"
           id="path22" />
      </g>
    </g>
  </g>
</svg>
