<?xml version="1.0" encoding="UTF-8" standalone="no"?>
<!-- Created with Inkscape (http://www.inkscape.org/) -->

<svg
   xmlns:dc="http://purl.org/dc/elements/1.1/"
   xmlns:cc="http://creativecommons.org/ns#"
   xmlns:rdf="http://www.w3.org/1999/02/22-rdf-syntax-ns#"
   xmlns:svg="http://www.w3.org/2000/svg"
   xmlns="http://www.w3.org/2000/svg"
   xmlns:sodipodi="http://sodipodi.sourceforge.net/DTD/sodipodi-0.dtd"
   xmlns:inkscape="http://www.inkscape.org/namespaces/inkscape"
   version="1.1"
   id="svg4485"
   width="748"
   height="1940"
   viewBox="0 0 748 1940"
   sodipodi:docname="background.svg"
   inkscape:version="0.92.1 r15371">
  <metadata
     id="metadata4491">
    <rdf:RDF>
      <cc:Work
         rdf:about="">
        <dc:format>image/svg+xml</dc:format>
        <dc:type
           rdf:resource="http://purl.org/dc/dcmitype/StillImage" />
        <dc:title></dc:title>
      </cc:Work>
    </rdf:RDF>
  </metadata>
  <defs
     id="defs4489" />
  <sodipodi:namedview
     pagecolor="#ffffff"
     bordercolor="#666666"
     borderopacity="1"
     objecttolerance="10"
     gridtolerance="10"
     guidetolerance="10"
     inkscape:pageopacity="0"
     inkscape:pageshadow="2"
     inkscape:window-width="1920"
     inkscape:window-height="1017"
     id="namedview4487"
     showgrid="false"
     inkscape:zoom="0.30981483"
     inkscape:cx="359.69258"
     inkscape:cy="931.23936"
     inkscape:window-x="-8"
     inkscape:window-y="-8"
     inkscape:window-maximized="1"
     inkscape:current-layer="svg4485" />
  <path
     style="fill:#d7d7d7;stroke-width:1.33333337;fill-opacity:1"
     d="m 673.33333,1937.2969 c -17.83184,-2.4805 -35.682,-11.3697 -42.17289,-21.0014 -1.6028,-2.3784 -3.32175,-7.2878 -3.81987,-10.9095 -0.98432,-7.1569 -2.07612,-8.5567 -7.72798,-9.9077 -2.4725,-0.5912 -5.04456,-2.977 -7.66667,-7.1116 -3.67129,-5.7891 -3.94592,-7.1194 -3.94592,-19.1146 0,-10.9014 0.41452,-13.4194 2.68407,-16.3048 2.04258,-2.5966 2.39712,-4.1533 1.48348,-6.513 -3.50331,-9.0486 -4.47307,-18.0262 -3.55595,-32.9192 0.5234,-8.4994 1.47907,-16.4388 2.12371,-17.6434 0.78337,-1.4637 0.0988,-5.0114 -2.06414,-10.6976 -1.77992,-4.679 -5.37446,-17.5074 -7.98789,-28.5074 -5.97292,-25.1403 -6.96684,-28.9998 -14.72445,-57.1774 -5.01568,-18.2182 -10.40083,-33.2974 -16.95954,-47.4893 -10.76822,-23.3004 -13.2102,-28.2861 -19.91848,-40.6667 C 545.10731,1604 532.64387,1581.8 521.38428,1562 c -24.86044,-43.7171 -29.66401,-53.9865 -36.67593,-78.4085 -1.012,-3.5247 -2.4258,-7.1247 -3.1418,-8 -0.716,-0.8754 -2.8315,-6.0915 -4.70112,-11.5915 -7.03431,-20.6933 -8.54876,-24.3728 -18.93344,-46 -3.16911,-6.6 -6.38982,-14.4 -7.15714,-17.3333 -0.86828,-3.3194 -3.37301,-7.1854 -6.63288,-10.2376 -5.60257,-5.246 -13.42138,-18.1619 -16.81198,-27.7719 -1.14135,-3.2349 -2.53658,-6.2061 -3.1005,-6.6028 -0.56393,-0.3965 -3.64176,-7.6211 -6.83962,-16.0544 -3.19786,-8.4333 -6.6188,-16.5168 -7.60208,-17.9633 -0.98328,-1.4465 -1.78779,-3.5265 -1.78779,-4.6221 0,-1.0956 -2.93217,-8.0121 -6.51593,-15.37 -3.58376,-7.3578 -9.34324,-19.3779 -12.79884,-26.7113 -3.4556,-7.3333 -9.16188,-19.0333 -12.68062,-26 -29.92374,-59.2453 -38.75173,-76.3727 -41.02862,-79.6008 -1.44799,-2.0529 -3.81486,-6.1325 -5.25971,-9.0658 -1.44485,-2.9334 -6.58397,-12.873 -11.42028,-22.0882 -8.51916,-16.2326 -23.67352,-52.3404 -25.54689,-60.8698 -1.21382,-5.5265 -3.09612,-6.9007 -12.34034,-9.0094 -10.1966,-2.326 -45.71352,-7.8558 -46.28581,-7.2066 -0.24593,0.279 0.0483,7.7073 0.65383,16.5073 0.60553,8.8 1.74013,50.5 2.52133,92.6667 0.78119,42.1666 2.0676,89.8666 2.85868,106 1.63939,33.4334 1.10393,48.5503 -2.12524,60 -2.15468,7.6397 -2.12945,9.1706 0.56001,34 1.54896,14.3 3.42074,29.6 4.15952,34 8.58075,51.1049 9.91582,74.6656 7.97094,140.6666 -0.83196,28.2334 -1.81067,52.741 -2.1749,54.4614 -0.80169,3.7869 1.59672,43.3673 3.52702,58.2053 2.70441,20.7887 7.697,50.906 12.6965,76.5905 3.40432,17.4894 4.11927,28.0762 1.89602,28.0762 -2.91394,0 -1.10252,3.7721 2.53496,5.2788 7.53832,3.1224 9.66157,6.9181 11.74232,20.9912 1.73705,11.7485 1.70869,14.4242 -0.28187,26.5854 -2.02332,12.3615 -2.03228,13.8724 -0.1044,17.6006 2.70004,5.2213 2.85509,23.8438 0.25043,30.0777 -2.20888,5.2865 -9.41795,11.1133 -15.99764,12.93 -3.75722,1.0375 -5.24435,2.4627 -7.22195,6.9213 -4.45589,10.0463 -17.64337,20.754 -31.58856,25.6486 -21.13369,7.4177 -70.30015,5.263 -85.66667,-3.7542 -4.09361,-2.4021 -5.72788,-6.5936 -3.18396,-8.1657 0.63215,-0.3907 0.85863,-6.2761 0.50327,-13.0787 -0.90609,-17.3456 1.63,-26.4084 11.37947,-40.6653 4.19901,-6.1403 9.47525,-14.4513 11.72497,-18.4689 2.24973,-4.0178 6.54387,-9.839 9.54252,-12.9362 2.99865,-3.0972 7.93496,-10.7024 10.96957,-16.9004 6.78068,-13.8489 7.35536,-14.5545 14.3975,-17.6766 6.4377,-2.8543 6.95548,-4.0391 2.62702,-6.0112 -5.47578,-2.495 -6.63762,-10.9806 -8.9968,-65.7098 -1.27964,-29.6853 -2.00704,-38.1661 -5.43224,-63.3333 -2.23206,-16.4005 -7.86182,-51.2955 -9.35741,-58 -2.8188,-12.6364 -3.86771,-17.1697 -7.71248,-33.3333 -9.44923,-39.7251 -9.81719,-41.4254 -13.56179,-62.6667 -2.27942,-12.9301 -4.06824,-27.0784 -4.6359,-36.6667 -0.30392,-5.1333 -1.1989,-13.8333 -1.98884,-19.3333 -2.10734,-14.6721 -3.53915,-55.9753 -2.34968,-67.7804 1.17761,-11.6876 0.56061,-18.3579 -2.91863,-31.5529 -3.35792,-12.735 -5.27865,-21.3102 -6.71957,-30 -2.04723,-12.3462 -9.10122,-43.6968 -17.25031,-76.6667 -0.90628,-3.6667 -2.5557,-9.6667 -3.66537,-13.3333 -1.10967,-3.6667 -2.805,-10.8667 -3.7674,-16 -0.96239,-5.1334 -2.69784,-12.6334 -3.85656,-16.6667 -3.22674,-11.2319 -6.557274,-27.1056 -14.07009,-67.0596 -0.661161,-3.5162 -1.614725,-7.6931 -2.119032,-9.282 -2.878179,-9.0684 -6.241956,-37.19 -8.571437,-71.6584 -0.916878,-13.5667 -2.101879,-25.1496 -2.633339,-25.7398 -2.073984,-2.3032 -18.110632,-4.933 -28.857979,-4.7324 -11.175952,0.2087 -11.355732,0.1598 -16.231624,-4.41131 C 30.885393,994.57421 27.016667,991.79585 25,990.94233 21.352712,989.39871 20.830999,987.99963 21.292539,981 c 0.226932,-3.4416 -0.09288,-3.66667 -5.210142,-3.66667 -2.998553,0 -6.680315,0.75 -8.1816941,1.66667 -2.3025156,1.4058 -3.0080352,1.29176 -4.5075437,-0.72864 -3.37295656,-4.54461 -2.54016848,-6.03307 33.3898848,-59.67817 12.551825,-18.74042 23.060479,-34.64042 23.352561,-35.33334 1.362544,-3.2324 46.476405,-70.48414 53.616355,-79.92652 18.03367,-23.84897 31.68885,-37.96516 49.70672,-51.38481 12.39589,-9.23243 12.56891,-16.92253 0.53864,-23.94183 -5.64645,-3.29453 -6.02148,-3.87464 -6.41035,-9.91561 -0.43828,-6.80864 0.57288,-9.99852 8.37336,-26.41495 2.69803,-5.67812 4.70539,-11.36305 4.46078,-12.63317 -1.10462,-5.73583 -10.97155,-6.88151 -35.95668,-4.17505 -15.99738,1.73286 -39.409462,-0.0999 -44.583505,-3.48999 -3.302933,-2.16416 -4.720913,-9.67963 -3.027212,-16.04459 0.585415,-2.2 1.430575,-8.05 1.878131,-13 0.582495,-6.44241 1.344715,-9 2.682212,-9 1.02766,0 2.149751,-1.35 2.493536,-3 2.219252,-10.6513 5.105239,-21.29474 7.415358,-27.34764 3.41165,-8.93905 3.37058,-12.07558 -0.20797,-15.88478 -2.652045,-2.82298 -2.752072,-3.52978 -1.238672,-8.7526 0.905492,-3.12491 3.103752,-8.69115 4.885022,-12.36944 1.78127,-3.6783 3.23867,-7.48451 3.23867,-8.45827 0,-0.97375 1.83352,-7.67216 4.07448,-14.88535 5.73145,-18.4483 11.6765,-25.51398 27.93825,-33.20457 11.86194,-5.60981 17.14668,-6.22219 24.73378,-2.86607 3.44253,1.5228 6.78286,2.76872 7.42298,2.76872 0.64011,0 1.16804,-3.45 1.17319,-7.66666 0.0215,-17.6042 11.04357,-49.62664 23.19652,-67.39255 1.90344,-2.78256 3.4608,-5.34449 3.4608,-5.69316 0,-0.34868 1.59969,-3.16804 3.55488,-6.26525 2.52641,-4.00208 3.70763,-7.9217 4.08284,-13.54792 0.82065,-12.30568 3.07648,-16.40563 9.98343,-18.14482 5.4308,-1.36749 5.96881,-1.93001 8.64664,-9.0406 6.19152,-16.4407 8.0391,-37.41464 6.03949,-68.56081 l -1.26124,-19.64511 -5.21387,-5.68822 c -9.62812,-10.5041 -17.34646,-21.60694 -23.18726,-33.3549 -4.10511,-8.25684 -6.50835,-11.66666 -8.22264,-11.66666 -2.01398,0 -2.42227,1.11046 -2.42227,6.58797 0,13.47331 -5.59795,9.00931 -11.60548,-9.25464 -3.45873,-10.51516 -3.72653,-12.87343 -3.70959,-32.66667 0.0208,-24.3614 2.90663,-41.86516 10.88111,-66 9.00848,-27.26428 18.78979,-43.244717 38.58629,-63.041222 7.12734,-7.127327 13.39746,-12.958775 13.93362,-12.958775 0.53616,0 5.08616,-2.514346 10.11112,-5.587438 16.96013,-10.372252 46.58202,-24.620635 59.90076,-28.812776 18.17246,-5.719883 34.90773,-8.266452 54.32456,-8.266452 26.47558,0 41.32682,3.819425 66.15313,17.013189 29.22935,15.533733 53.1762,46.151633 64.61225,82.611734 7.18408,22.90409 11.24175,43.25281 16.16611,81.07094 6.67933,51.29607 10.34475,62.49771 23.33775,71.32108 9.09982,6.17959 18.65306,10.17459 38.34098,16.0336 20.17656,6.00442 17.67318,7.26644 -14.03261,7.07422 -22.80564,-0.13827 -24.33333,0.007 -24.33333,2.30946 0,1.35136 2.14897,8.33148 4.77548,15.51139 2.62652,7.17991 5.97636,16.35439 7.44409,20.38772 1.46773,4.03333 4.33184,10.93333 6.36467,15.33333 2.03282,4.4 5.11198,11.6 6.84257,16 1.73057,4.4 4.59395,10.7 6.36304,14 1.76909,3.3 5.73379,10.8 8.81044,16.66667 3.07665,5.86667 8.78881,16.06667 12.69369,22.66667 3.90488,6.6 8.84183,15 10.97099,18.66666 C 601.0608,443 604.0616,448.1 605.60008,450.66667 609.75125,457.59213 632,497.45012 632,497.96136 c 0,0.24229 2.31183,5.45009 5.13739,11.57292 8.4955,18.4092 16.42472,43.84792 21.54844,69.13239 2.81057,13.86952 3.2129,44.77572 0.75204,57.76937 -2.3281,12.29257 -7.64011,26.23063 -9.99692,26.23063 -3.32448,0 -5.53119,-7.17795 -10.14082,-32.98586 -1.74032,-9.74356 -3.53021,-18.30773 -3.97753,-19.03152 -0.81143,-1.31292 -4.65593,-1.88004 -4.65593,-0.68681 0,3.20403 -6.46076,29.22003 -9.59562,38.63931 -3.976,11.94668 -10.98288,27.63865 -14.02013,31.39821 -4.78905,5.92795 -15.84641,21.34107 -22.23536,30.99439 -11.62773,17.5688 -34.01613,41.0563 -43.29496,45.4204 -2.55861,1.20338 -3.45251,1.0606 -4.7872,-0.76471 -2.23377,-3.05487 -3.57539,-47.30263 -2.56244,-84.51227 0.57535,-21.1347 0.20303,-36.54209 -1.35555,-56.0954 -1.18181,-14.82668 -2.14874,-27.57668 -2.14874,-28.33333 0,-0.75667 -0.9,-1.37575 -2,-1.37575 -1.1,0 -2,0.80363 -2,1.78586 0,7.53404 -4.50419,46.02472 -6.74403,57.6313 -5.34643,27.70462 -11.94511,44.0355 -32.29103,79.91618 -14.91312,26.2998 -18.8963,32.25358 -22.30114,33.33424 -2.03756,0.64669 -2.6638,2.01825 -2.6638,5.8341 0,2.74375 -0.84307,6.1416 -1.87347,7.55078 -1.79615,2.45636 -2.06969,2.46854 -6.62677,0.29542 -2.61432,-1.24668 -9.36072,-6.28496 -14.992,-11.19617 -11.57626,-10.09601 -16.27455,-11.38136 -20.86148,-5.70727 -2.04535,2.53012 -4.76478,3.55994 -12.66078,4.79447 -12.84582,2.00845 -15.2829,4.24704 -16.01353,14.70931 -0.45201,6.47269 0.1252,9.19064 3.57652,16.8398 2.26355,5.01674 5.28116,10.60321 6.70581,12.41436 1.42466,1.81114 3.28606,6.70653 4.13646,10.87864 0.8504,4.1721 2.74368,9.55081 4.20729,11.95268 2.56571,4.2105 5.22119,12.45037 7.61625,23.63297 0.62826,2.93333 2.73896,13.04163 4.69046,22.46289 1.9515,9.42126 4.35576,19.62126 5.34281,22.66667 1.91132,5.89716 8.29856,26.63037 13.61776,44.20377 1.77575,5.86667 3.75239,11.86667 4.39252,13.33334 0.64013,1.46666 2.72615,6.74085 4.63559,11.72041 3.02477,7.88824 12.95212,30.50077 23.82978,54.27962 6.96167,15.2183 14.27678,33.7348 14.27678,36.1382 0,2.8708 -13.18236,9.939 -25.66667,13.7622 -8.77365,2.6868 -8.82424,2.8393 -5.11869,15.4371 1.4014,4.7644 4.401,14.9625 6.6658,22.6625 2.26478,7.7 6.24322,21.2 8.84097,30 2.59775,8.8 5.37925,18.4 6.18112,21.3333 0.80187,2.9333 1.96164,7.1333 2.57728,9.3333 0.61564,2.2 2.07691,7.9 3.24727,12.6667 1.17036,4.7667 4.78046,19.4667 8.02245,32.6667 3.242,13.2 6.46585,25.8 7.16413,28 0.69827,2.2 2.55438,9.0998 4.12468,15.3329 1.57031,6.2331 5.57914,20.0331 8.9085,30.6667 3.32937,10.6335 6.53678,21.1337 7.12761,23.3337 0.59081,2.2 2.93117,10.2094 5.20079,17.7987 2.26962,7.5893 4.50136,17.3844 4.95942,21.7669 0.54087,5.1748 1.90878,9.4521 3.90199,12.2013 6.00265,8.2791 14.31429,22.6635 32.49293,56.2331 1.98558,3.6667 7.98968,16.2652 13.34246,27.9967 5.35277,11.7316 10.48189,22.5316 11.39806,24 3.40414,5.4564 12.81436,35.43 21.34968,68.0033 4.42152,16.8739 14.03847,52.7284 19.84838,74 2.70398,9.9 5.79549,21.3 6.87001,25.3333 1.07452,4.0334 6.50124,20.8334 12.05939,37.3334 9.4609,28.0858 12.34413,36.2381 23.93184,67.6669 2.50105,6.7835 4.94314,15.7011 5.42688,19.8168 l 0.87949,7.4832 -4.4014,-0.9667 c -3.93289,-0.8638 -4.29725,-0.7024 -3.42299,1.5166 0.53812,1.3657 1.88904,6.3832 3.00204,11.1498 1.113,4.7667 2.24396,9.4167 2.51326,10.3334 0.26929,0.9166 1.93518,1.6666 3.70197,1.6666 5.40175,0 12.53289,3.7342 16.12512,8.4439 1.87709,2.4609 3.41289,5.1005 3.41289,5.8657 0,2.0231 9.36763,15.3894 12.20766,17.4186 3.4167,2.4412 9.12568,12.5909 9.12568,16.2241 0,3.3052 4.51625,12.6621 13.21576,27.3811 9.41745,15.9336 12.52673,29.6706 9.32545,41.2004 -1.068,3.8465 -1.03757,5.9598 0.11693,8.1169 2.8364,5.2999 1.18972,10.3281 -4.40722,13.4577 -9.66831,5.4063 -47.34598,8.6704 -67.5842,5.8552 z M 269.22937,377.21265 l 10.42778,-4.12066 0.8265,-6.87934 c 1.37555,-11.44921 1.03659,-19.5487 -0.81698,-19.52172 -0.91667,0.0133 -4.36667,1.8563 -7.66667,4.09546 -3.3,2.23916 -7.60133,4.3935 -9.55852,4.78744 -4.04077,0.81332 -4.52469,2.14216 -5.86047,16.09284 -0.67605,7.06073 -0.5015,9.66666 0.64751,9.66666 0.86519,0 6.26557,-1.8543 12.00085,-4.12068 z"
     id="path4495"
     inkscape:connector-curvature="0" />
</svg>
