<?xml version="1.0" encoding="UTF-8" standalone="no"?>
<!-- Generator: Adobe Illustrator 16.0.0, SVG Export Plug-In . SVG Version: 6.00 Build 0)  -->

<svg
   xmlns:dc="http://purl.org/dc/elements/1.1/"
   xmlns:cc="http://creativecommons.org/ns#"
   xmlns:rdf="http://www.w3.org/1999/02/22-rdf-syntax-ns#"
   xmlns:svg="http://www.w3.org/2000/svg"
   xmlns="http://www.w3.org/2000/svg"
   xmlns:sodipodi="http://sodipodi.sourceforge.net/DTD/sodipodi-0.dtd"
   xmlns:inkscape="http://www.inkscape.org/namespaces/inkscape"
   version="1.1"
   id="Capa_1"
   x="0px"
   y="0px"
   width="961.01373"
   height="100.01084"
   viewBox="0 0 961.01372 100.01084"
   enable-background="new 0 0 1190.55 841.89"
   xml:space="preserve"
   sodipodi:docname="logo.svg"
   inkscape:version="0.92.1 r15371"
   inkscape:export-filename="C:\Users\EIREXE\Downloads\hobbyca.png"
   inkscape:export-xdpi="961.53662"
   inkscape:export-ydpi="961.53662"><metadata
     id="metadata129"><rdf:RDF><cc:Work
         rdf:about=""><dc:format>image/svg+xml</dc:format><dc:type
           rdf:resource="http://purl.org/dc/dcmitype/StillImage" /><dc:title></dc:title></cc:Work></rdf:RDF></metadata><defs
     id="defs127" /><sodipodi:namedview
     pagecolor="#ffffff"
     bordercolor="#666666"
     borderopacity="1"
     objecttolerance="10"
     gridtolerance="10"
     guidetolerance="10"
     inkscape:pageopacity="0"
     inkscape:pageshadow="2"
     inkscape:window-width="2560"
     inkscape:window-height="1017"
     id="namedview125"
     showgrid="false"
     inkscape:zoom="1.1212866"
     inkscape:cx="380.38042"
     inkscape:cy="67.914442"
     inkscape:window-x="1912"
     inkscape:window-y="-8"
     inkscape:window-maximized="1"
     inkscape:current-layer="Capa_1"
     fit-margin-top="0"
     fit-margin-left="0"
     fit-margin-right="0"
     fit-margin-bottom="0" /><g
     id="g40"
     transform="translate(-172.114,-389.066)"
     style="fill:#9279b5;fill-opacity:1"><g
       id="g38"
       style="fill:#9279b5;fill-opacity:1"><path
         d="m 708.635,402.663 c 1.1,-2.424 1.554,-4.725 1.354,-6.826 -0.173,-1.836 -0.865,-3.141 -2.18,-4.119 -1.458,-1.08 -3.258,-1.607 -5.491,-1.607 h -41.714 c -2.155,0.039 -4.646,0.672 -7.353,1.875 -2.938,1.309 -5.606,3.152 -7.936,5.48 -2.379,2.387 -4.176,4.895 -5.34,7.461 -9.216,20.527 -18.479,41.045 -27.744,61.561 l -4.546,10.074 c -1.027,2.24 -1.411,4.33 -1.148,6.223 0.23,1.662 0.943,2.852 2.238,3.742 1.474,1.008 3.297,1.502 5.573,1.502 2.433,0 5.104,-0.617 7.933,-1.824 2.864,-1.227 5.441,-2.955 7.671,-5.129 2.226,-2.18 3.898,-4.461 4.976,-6.781 l 8.25,-18.297 c 0.228,-0.402 0.527,-0.789 0.89,-1.143 0.395,-0.377 0.816,-0.676 1.264,-0.889 0.57,-0.279 1.161,-0.416 1.765,-0.416 l 15.015,-0.012 c 2.342,0 4.956,-0.621 7.774,-1.844 2.866,-1.246 5.52,-3.059 7.888,-5.393 2.322,-2.301 4.089,-4.764 5.241,-7.334 1.097,-2.447 1.559,-4.736 1.371,-6.807 -0.168,-1.838 -0.844,-3.145 -2.13,-4.113 -1.426,-1.078 -3.197,-1.605 -5.42,-1.605 l -15.02,0.016 c -0.757,0 -1.469,-0.227 -2.066,-0.65 -0.775,-0.555 -1.254,-1.385 -1.347,-2.342 -0.064,-0.68 0.073,-1.361 0.396,-1.992 l 0.485,-1.123 c 0.209,-0.564 0.537,-1.062 0.987,-1.5 0.403,-0.396 0.876,-0.717 1.396,-0.943 0.561,-0.248 1.138,-0.375 1.706,-0.375 l 24.302,-0.02 c 2.324,0 4.921,-0.635 7.726,-1.885 2.852,-1.273 5.507,-3.125 7.888,-5.504 2.388,-2.391 4.186,-4.898 5.346,-7.461 z"
         id="path24"
         inkscape:connector-curvature="0"
         style="fill:#9279b5;fill-opacity:1" /><path
         d="m 712.854,474.265 c 8.812,-19.52 20.443,-45.312 32.204,-71.604 1.095,-2.43 1.549,-4.725 1.348,-6.826 -0.175,-1.838 -0.867,-3.146 -2.18,-4.113 -1.462,-1.084 -3.262,-1.611 -5.491,-1.611 -2.362,0 -4.992,0.645 -7.816,1.906 -2.867,1.285 -5.493,3.121 -7.804,5.467 -2.325,2.352 -4.094,4.848 -5.254,7.408 -10.936,24.414 -21.963,48.861 -32.247,71.633 -1.039,2.277 -1.409,4.32 -1.136,6.27 0.236,1.674 0.959,2.865 2.271,3.738 3.123,2.08 7.84,1.986 13.256,-0.25 2.828,-1.17 5.43,-2.877 7.723,-5.074 2.3,-2.206 4.024,-4.54 5.126,-6.944 z"
         id="path26"
         inkscape:connector-curvature="0"
         style="fill:#9279b5;fill-opacity:1" /><path
         d="m 817.77,413.392 c -0.026,-0.654 0.074,-1.316 0.179,-2.008 0.065,-0.453 0.151,-1.016 0.144,-1.293 l -0.011,-0.363 c -0.031,-1.023 -0.061,-2.084 -0.17,-3.064 -0.596,-5.379 -2.781,-9.359 -6.679,-12.178 -8.133,-5.877 -20.244,-5.816 -34.156,0.293 -7.086,3.115 -13.636,7.674 -19.47,13.557 -5.85,5.891 -10.245,12.111 -13.066,18.494 -5.285,11.707 -7.933,17.547 -13.127,28.992 -2.527,5.828 -3.497,11.459 -2.866,16.676 0.615,5.08 2.828,8.814 6.762,11.428 4.09,2.717 9.075,4.098 14.822,4.098 1.88,0 4.396,-0.584 6.831,-1.148 2.432,-0.566 4.732,-1.105 6.602,-1.105 0.329,0 0.637,0.02 0.926,0.051 0.73,0.08 1.25,0.416 1.56,0.619 3.758,2.309 8.221,1.967 13.309,-0.156 2.814,-1.174 5.423,-2.893 7.752,-5.107 2.315,-2.197 4.023,-4.523 5.074,-6.914 3.2,-7.066 4.819,-10.65 8.079,-17.879 1.076,-2.355 1.516,-4.596 1.314,-6.658 -0.179,-1.809 -0.865,-3.096 -2.169,-4.055 -1.468,-1.076 -3.263,-1.598 -5.496,-1.598 l -7.083,0.012 c -2.371,0 -5.008,0.639 -7.838,1.896 -2.87,1.275 -5.504,3.1 -7.824,5.42 -2.446,2.447 -4.19,4.865 -5.187,7.195 -0.076,0.174 -0.154,0.412 -0.233,0.643 -0.358,1.066 -0.735,2.162 -2.017,2.664 l -0.47,0.182 -0.516,0.004 c -0.969,0 -1.612,-0.475 -2.356,-1.021 -1.298,-0.947 -2.09,-2.311 -2.24,-3.844 -0.126,-1.307 0.103,-2.662 0.68,-4.025 5.135,-11.344 7.735,-17.096 12.916,-28.6 0.525,-1.275 1.38,-2.529 2.506,-3.65 1.104,-1.107 2.354,-1.967 3.712,-2.562 2.995,-1.314 5.827,-1.215 7.927,0.246 1.372,0.959 2.209,2.443 2.301,4.08 0.011,0.201 0.013,0.459 0.007,0.67 -0.021,0.758 -0.038,1.613 0.024,2.164 0.211,1.865 0.919,3.23 2.175,4.168 3.096,2.312 7.939,2.135 13.29,-0.307 2.868,-1.314 5.497,-3.162 7.822,-5.492 2.314,-2.324 4.078,-4.807 5.238,-7.367 0.472,-1.043 0.781,-2.174 1.022,-3.158 z"
         id="path28"
         inkscape:connector-curvature="0"
         style="fill:#9279b5;fill-opacity:1" /><path
         d="m 880.886,453.446 c 7.835,-17.377 15.488,-34.488 22.748,-50.838 1.033,-2.395 1.455,-4.689 1.244,-6.795 -0.186,-1.834 -0.876,-3.135 -2.182,-4.111 -1.443,-1.072 -3.222,-1.592 -5.455,-1.592 -2.361,0 -5.002,0.641 -7.847,1.9 -2.88,1.283 -5.505,3.105 -7.798,5.432 -2.304,2.34 -4.028,4.814 -5.126,7.355 -7.165,16.111 -14.766,33.09 -22.61,50.49 -0.515,1.221 -1.355,2.432 -2.47,3.531 -1.111,1.094 -2.378,1.947 -3.765,2.527 -3.025,1.271 -5.843,1.156 -7.893,-0.273 -1.303,-0.914 -2.076,-2.266 -2.235,-3.918 -0.128,-1.299 0.1,-2.656 0.679,-4.027 8.146,-18.09 15.539,-34.59 22.622,-50.502 1.037,-2.406 1.463,-4.707 1.254,-6.809 -0.179,-1.83 -0.872,-3.139 -2.174,-4.111 -1.438,-1.072 -3.222,-1.596 -5.455,-1.596 -2.366,0 -5.004,0.641 -7.847,1.9 -2.88,1.283 -5.509,3.111 -7.808,5.449 -2.307,2.334 -4.033,4.809 -5.138,7.355 -7.525,16.879 -15.216,34.008 -22.869,50.941 -2.539,5.871 -3.509,11.502 -2.863,16.689 0.628,5.076 2.859,8.828 6.819,11.469 8.275,5.521 20.548,5.473 34.335,-0.258 7.071,-2.936 13.543,-7.256 19.237,-12.846 5.563,-5.454 9.801,-11.293 12.597,-17.362 z"
         id="path30"
         inkscape:connector-curvature="0"
         style="fill:#9279b5;fill-opacity:1" /><path
         d="m 976.37,406.626 c -0.589,-5.367 -2.785,-9.344 -6.722,-12.152 -4.053,-2.895 -9.021,-4.363 -14.751,-4.363 H 933.56 c -2.324,0 -4.91,0.625 -7.692,1.857 -2.822,1.256 -5.444,3.08 -7.803,5.447 -2.47,2.482 -4.239,4.955 -5.248,7.348 -0.151,0.348 -0.284,0.707 -0.431,1.072 l -0.914,2.326 h -0.152 c -9.045,20.355 -19.676,44.223 -30.546,68.27 -1.041,2.268 -1.442,4.379 -1.206,6.279 0.209,1.658 0.919,2.854 2.243,3.773 1.498,1.039 3.308,1.545 5.534,1.545 2.426,0 5.082,-0.609 7.9,-1.814 2.854,-1.229 5.441,-2.947 7.691,-5.121 2.259,-2.182 3.965,-4.51 5.073,-6.924 l 3.927,-8.846 2.65,4.656 c 3.51,6.158 5.201,9.062 8.619,14.822 0.791,1.311 2.043,2.221 3.815,2.768 1.921,0.596 4.273,0.57 6.974,-0.08 2.845,-0.678 5.574,-1.879 8.104,-3.566 2.643,-1.76 4.889,-3.875 6.678,-6.301 1.739,-2.354 2.811,-4.697 3.169,-6.963 0.341,-2.1 0.102,-3.82 -0.723,-5.258 -1.979,-3.561 -2.966,-5.355 -4.894,-8.879 l -1.585,-2.305 2.496,-1.535 c 4.659,-2.682 9.065,-6.111 13.101,-10.189 5.734,-5.795 10.039,-11.855 12.783,-18.031 2.772,-6.207 3.861,-12.211 3.247,-17.836 z m -30.409,19.984 c -0.588,1.328 -1.421,2.527 -2.487,3.57 -1.082,1.055 -2.308,1.906 -3.653,2.523 -1.414,0.646 -2.809,0.975 -4.146,0.975 h -0.987 -3.297 c -1.07,0 -1.801,-0.428 -2.221,-0.795 -0.639,-0.547 -1.034,-1.32 -1.126,-2.176 -0.054,-0.561 0.012,-1.107 0.181,-1.648 l 0.109,-0.285 3.866,-8.625 c 0.205,-0.549 0.531,-1.045 0.969,-1.477 0.399,-0.385 0.872,-0.707 1.399,-0.941 0.559,-0.248 1.134,-0.379 1.711,-0.379 h 4.282 c 1.484,0 2.802,0.402 3.905,1.201 1.254,0.898 2.023,2.242 2.214,3.875 0.163,1.325 -0.082,2.729 -0.719,4.182 z"
         id="path32"
         inkscape:connector-curvature="0"
         style="fill:#9279b5;fill-opacity:1" /><path
         d="m 1030.816,474.11 c 7.09,-15.693 14.435,-32.121 22.435,-50.205 2.545,-5.99 3.54,-11.844 2.945,-17.348 -0.587,-5.328 -2.785,-9.285 -6.725,-12.09 -8.243,-5.859 -20.37,-5.791 -34.187,0.281 -7.067,3.107 -13.571,7.635 -19.324,13.449 -5.665,5.719 -9.97,11.768 -12.797,17.982 -7.457,16.805 -15.021,33.705 -22.473,50.213 -1.043,2.277 -1.447,4.395 -1.212,6.295 0.203,1.666 0.913,2.867 2.229,3.787 1.496,1.041 3.302,1.553 5.527,1.553 2.431,0 5.094,-0.609 7.907,-1.82 2.851,-1.223 5.446,-2.953 7.707,-5.137 2.264,-2.189 3.971,-4.525 5.079,-6.941 2.011,-4.439 3.03,-6.701 5.054,-11.189 0.199,-0.549 0.536,-1.043 0.987,-1.471 0.396,-0.387 0.858,-0.695 1.373,-0.922 0.578,-0.248 1.146,-0.371 1.706,-0.371 l 8.577,-0.002 c 1.056,0 1.78,0.422 2.204,0.775 0.633,0.539 1.039,1.299 1.14,2.143 0.063,0.561 0.01,1.121 -0.164,1.672 l -0.111,0.293 c -1.684,3.742 -2.68,5.938 -4.105,9.09 l -1.01,2.223 c -1.041,2.275 -1.451,4.4 -1.212,6.318 0.199,1.662 0.909,2.867 2.229,3.787 1.495,1.041 3.296,1.553 5.515,1.553 2.431,0 5.089,-0.617 7.909,-1.822 2.865,-1.234 5.464,-2.961 7.716,-5.15 2.261,-2.182 3.971,-4.518 5.081,-6.946 z m -10.795,-35.072 c -0.396,0.455 -0.904,0.82 -1.494,1.082 -0.567,0.248 -1.146,0.373 -1.706,0.373 l -8.576,0.008 c -1.071,0 -1.801,-0.43 -2.224,-0.795 -0.549,-0.469 -0.928,-1.1 -1.104,-1.822 -0.188,-0.76 -0.086,-1.602 0.297,-2.357 l 4.943,-11.154 c 0.584,-1.236 1.381,-2.379 2.396,-3.457 1.065,-1.129 2.314,-2.014 3.719,-2.643 3.12,-1.404 6.165,-1.264 8.188,0.342 1.157,0.922 1.881,2.215 2.086,3.758 0.184,1.373 -0.063,2.791 -0.723,4.229 l -5.089,11.439 c -0.21,0.364 -0.449,0.7 -0.713,0.997 z"
         id="path34"
         inkscape:connector-curvature="0"
         style="fill:#9279b5;fill-opacity:1" /><path
         d="m 1133.119,408.532 -0.028,-0.482 c -0.029,-0.779 -0.068,-1.598 -0.158,-2.387 -0.571,-5.018 -2.659,-8.758 -6.371,-11.426 -7.765,-5.568 -19.452,-5.461 -32.403,0.281 -6.654,2.955 -12.836,7.258 -18.357,12.781 -6.395,6.398 -8.731,10.125 -9.563,12.127 l -0.696,1.668 h -0.104 c -1.846,4.51 -2.393,8.549 -1.627,12.025 0.828,3.764 3.067,6.717 6.837,9.021 4.015,2.459 9.044,3.727 14.944,3.766 1.46,0.014 2.758,0.4 3.862,1.15 1.274,0.877 2.057,2.213 2.262,3.883 0.034,0.258 0.044,0.564 0.046,0.824 0.012,0.355 0,1.039 -0.184,1.744 -0.127,0.494 -0.264,1.037 -0.518,1.598 -0.555,1.225 -1.413,2.41 -2.547,3.508 -1.085,1.053 -2.291,1.881 -3.591,2.486 -2.888,1.332 -5.894,1.279 -8.045,-0.264 -0.782,-0.562 -1.365,-1.324 -1.758,-2.273 h -0.826 l 0.288,-3.029 c 0.066,-0.559 0.077,-1.082 0.029,-1.553 -0.164,-1.691 -0.918,-3.033 -2.224,-4.004 -1.314,-0.971 -3.188,-1.506 -5.563,-1.586 l -0.437,-0.01 c -2.26,0 -4.759,0.605 -7.221,1.742 -2.949,1.363 -5.622,3.24 -7.941,5.559 -2.342,2.342 -4.082,4.77 -5.179,7.215 -0.805,1.795 -1.24,3.742 -1.267,5.646 -0.012,1.205 0.061,2.451 0.211,3.611 0.676,5.119 2.854,8.91 6.652,11.582 4.051,2.848 9.067,4.291 14.922,4.291 6.2,0 12.884,-1.539 19.858,-4.561 7.113,-3.086 13.568,-7.434 19.19,-12.932 5.065,-4.945 8.571,-9.467 10.403,-13.428 l 0.751,-1.57 c 1.704,-4.268 2.021,-7.996 0.95,-11.102 -1.24,-3.582 -3.836,-6.484 -7.954,-8.869 -4.306,-2.498 -9.506,-3.783 -15.449,-3.824 -1.495,-0.008 -2.814,-0.428 -3.929,-1.242 -1.283,-0.945 -2.078,-2.346 -2.242,-3.939 -0.025,-0.275 -0.021,-0.59 -0.01,-0.885 0,-0.221 -0.02,-0.547 0.07,-0.951 l 0.067,-0.289 c 0.114,-0.547 0.265,-1.225 0.562,-1.912 0.521,-1.219 1.383,-2.434 2.545,-3.602 1.102,-1.111 2.352,-1.969 3.711,-2.57 2.959,-1.299 5.81,-1.195 7.913,0.256 1.415,0.979 2.267,2.533 2.271,4.059 0.094,0.578 0.069,1.117 0.041,1.641 -0.01,0.26 -0.037,0.539 -0.01,0.766 0.186,1.707 0.833,2.92 2.039,3.826 2.867,2.152 7.438,1.979 12.439,-0.312 2.696,-1.234 5.161,-2.969 7.324,-5.145 2.138,-2.154 3.765,-4.469 4.823,-6.875 0.872,-1.969 1.28,-4.055 1.188,-6.034 z"
         id="path36"
         inkscape:connector-curvature="0"
         style="fill:#9279b5;fill-opacity:1" /></g></g><g
     id="g98"
     transform="translate(-172.114,-389.066)"><g
       id="g96"><path
         d="m 281.103,474.571 c 9.397,-21.125 19.506,-43.684 32.777,-73.131 1.103,-2.416 1.55,-4.68 1.335,-6.748 -0.181,-1.789 -0.891,-3.072 -2.228,-4.027 -1.507,-1.074 -3.358,-1.598 -5.658,-1.598 -2.423,0 -5.107,0.633 -7.97,1.885 -2.914,1.268 -5.578,3.09 -7.914,5.41 -2.351,2.334 -4.136,4.814 -5.305,7.375 l -7.613,16.832 c -0.207,0.547 -0.538,1.041 -0.986,1.477 -0.4,0.391 -0.872,0.713 -1.397,0.939 -0.582,0.252 -1.159,0.385 -1.721,0.385 l -8.722,0.021 c -1.071,0 -1.797,-0.43 -2.22,-0.787 -0.661,-0.562 -1.066,-1.354 -1.146,-2.227 -0.056,-0.512 0.011,-1.076 0.192,-1.633 l 0.108,-0.285 7.667,-16.945 c 1.109,-2.426 1.562,-4.707 1.352,-6.785 -0.183,-1.803 -0.896,-3.094 -2.239,-4.059 -1.509,-1.08 -3.365,-1.604 -5.67,-1.604 -2.428,0 -5.121,0.641 -7.998,1.895 -2.921,1.279 -5.591,3.107 -7.938,5.439 -2.357,2.346 -4.15,4.842 -5.327,7.414 l -1.996,4.416 c -10.354,22.887 -20.708,45.77 -30.994,68.686 -1.062,2.354 -1.46,4.568 -1.186,6.6 0.244,1.787 0.989,3.061 2.348,3.99 3.18,2.178 8.004,2.082 13.529,-0.264 2.896,-1.229 5.556,-3.018 7.909,-5.322 2.359,-2.309 4.13,-4.76 5.274,-7.287 3.642,-8.17 5.513,-12.336 9.25,-20.645 0.208,-0.549 0.537,-1.045 0.982,-1.482 0.412,-0.402 0.883,-0.715 1.408,-0.943 0.563,-0.25 1.143,-0.373 1.721,-0.373 l 8.735,-0.029 c 0.852,0 1.619,0.275 2.229,0.791 0.638,0.547 1.041,1.322 1.135,2.174 0.057,0.572 -0.004,1.125 -0.178,1.672 l -0.11,0.283 c -3.76,8.373 -5.632,12.543 -9.289,20.758 -1.067,2.363 -1.466,4.596 -1.19,6.643 0.241,1.803 0.989,3.08 2.351,4.016 3.184,2.197 8.018,2.092 13.514,-0.258 2.893,-1.236 5.551,-3.033 7.908,-5.355 2.364,-2.325 4.138,-4.788 5.271,-7.314 z"
         id="path70"
         inkscape:connector-curvature="0"
         style="fill:#ebeaea" /><g
         id="g76"><polygon
           points=""
           id="polygon72"
           style="fill:#ebeaea" /><path
           d="m 371.605,452.507 c 5.133,-11.684 7.735,-17.58 12.909,-29.232 2.805,-6.295 3.907,-12.322 3.276,-17.91 -0.599,-5.309 -2.822,-9.23 -6.797,-11.992 -4.103,-2.857 -9.142,-4.305 -14.981,-4.305 -5.995,0 -12.644,1.539 -19.76,4.588 -7.195,3.08 -13.824,7.609 -19.706,13.455 -5.922,5.889 -10.4,12.148 -13.309,18.604 -5.242,11.674 -7.881,17.562 -13.08,29.223 -2.788,6.201 -3.88,12.131 -3.252,17.631 0.6,5.24 2.858,9.186 6.902,12.061 4.145,2.949 9.275,4.443 15.257,4.443 6.326,0 13.133,-1.598 20.24,-4.74 7.177,-3.174 13.71,-7.713 19.42,-13.486 5.725,-5.799 10.059,-11.967 12.881,-18.34 z m -14.788,-26.961 c -5.184,11.615 -7.805,17.506 -12.971,29.178 -0.599,1.301 -1.438,2.488 -2.51,3.576 -1.084,1.092 -2.324,1.963 -3.69,2.588 -1.424,0.65 -2.835,0.988 -4.195,0.988 -1.535,0 -2.872,-0.432 -3.992,-1.277 -1.221,-0.92 -1.982,-2.242 -2.197,-3.816 -0.188,-1.365 0.06,-2.803 0.735,-4.26 5.156,-11.639 7.784,-17.527 13.002,-29.197 0.615,-1.316 1.476,-2.516 2.58,-3.617 1.119,-1.113 2.384,-1.984 3.76,-2.586 1.414,-0.617 2.779,-0.93 4.062,-0.932 h 0.017 c 1.471,0 2.785,0.385 3.911,1.16 1.324,0.908 2.14,2.334 2.296,4.006 0.125,1.367 -0.148,2.777 -0.808,4.189 z"
           id="path74"
           inkscape:connector-curvature="0"
           style="fill:#ebeaea" /></g><g
         id="g84"><polygon
           points=""
           id="polygon78"
           style="fill:#ebeaea" /><polygon
           points="419.037,447.862 419.037,447.858 "
           id="polygon80"
           style="fill:#ebeaea" /><path
           d="m 458.978,426.478 c 1.24,-1.812 2.522,-3.688 3.207,-5.252 2.616,-5.969 3.614,-11.643 2.969,-16.879 -0.612,-4.951 -2.739,-8.625 -6.51,-11.221 -3.9,-2.693 -8.693,-4.059 -14.241,-4.059 h -19.809 c -2.377,0 -5.01,0.611 -7.822,1.824 -2.865,1.227 -5.515,3.025 -7.874,5.336 -2.371,2.322 -4.153,4.783 -5.299,7.307 -11.11,24.906 -21.979,49.502 -32.293,73.094 -1.062,2.404 -1.466,4.652 -1.209,6.695 0.227,1.799 0.979,3.105 2.371,4.107 1.543,1.104 3.391,1.641 5.652,1.641 h 21.801 c 6.318,0 13.116,-1.613 20.209,-4.777 7.17,-3.211 13.694,-7.783 19.394,-13.594 5.766,-5.883 10.072,-12.072 12.797,-18.406 2.822,-6.555 3.912,-12.785 3.151,-18.004 -0.068,-0.268 -0.176,-0.805 -0.024,-1.438 0.446,-1.867 1.874,-3.951 3.53,-6.374 z m -34.387,27.986 c -0.537,1.244 -1.378,2.457 -2.496,3.596 -1.074,1.094 -2.313,1.967 -3.681,2.598 -1.416,0.654 -2.827,0.99 -4.196,0.99 l -4.36,0.014 c -0.76,0 -1.474,-0.217 -2.067,-0.639 -0.786,-0.564 -1.271,-1.387 -1.371,-2.33 -0.079,-0.654 0.051,-1.355 0.378,-2.006 l 3.901,-9.002 c 0.234,-0.424 0.533,-0.816 0.891,-1.174 0.382,-0.383 0.812,-0.693 1.279,-0.918 0.584,-0.285 1.184,-0.432 1.787,-0.432 l 4.381,-0.01 c 1.469,0 2.785,0.391 3.915,1.17 1.338,0.918 2.14,2.299 2.31,3.986 0.139,1.376 -0.094,2.813 -0.671,4.157 z m 13.571,-31.057 c -0.579,1.324 -1.418,2.537 -2.494,3.6 -1.098,1.078 -2.313,1.938 -3.631,2.549 -1.395,0.656 -2.8,0.996 -4.165,1 l -4.356,0.016 c -0.765,0 -1.48,-0.227 -2.069,-0.641 -0.775,-0.539 -1.266,-1.371 -1.371,-2.33 -0.049,-0.477 -0.021,-1.203 0.392,-2.014 l 3.929,-8.953 c 0.231,-0.414 0.532,-0.809 0.895,-1.158 0.384,-0.377 0.808,-0.678 1.264,-0.906 0.582,-0.279 1.178,-0.42 1.784,-0.42 l 4.358,-0.012 c 1.467,0 2.78,0.389 3.907,1.156 1.346,0.918 2.148,2.291 2.318,3.977 0.126,1.304 -0.128,2.691 -0.761,4.136 z"
           id="path82"
           inkscape:connector-curvature="0"
           style="fill:#ebeaea" /></g><g
         id="g92"><polygon
           points=""
           id="polygon86"
           style="fill:#ebeaea" /><polygon
           points=""
           id="polygon88"
           style="fill:#ebeaea" /><path
           d="m 539.586,426.237 c 1.228,-1.809 2.494,-3.68 3.166,-5.236 2.582,-5.955 3.544,-11.602 2.865,-16.781 -0.64,-4.912 -2.802,-8.553 -6.601,-11.133 -3.93,-2.67 -8.745,-4.02 -14.317,-4.02 h -19.837 c -2.374,0 -5.005,0.609 -7.821,1.807 -2.862,1.221 -5.502,3 -7.841,5.283 -2.349,2.299 -4.11,4.729 -5.233,7.223 -10.254,23.244 -20.954,47.844 -31.796,73.088 -1.051,2.426 -1.445,4.697 -1.179,6.771 0.235,1.836 1,3.16 2.402,4.178 1.548,1.111 3.396,1.654 5.653,1.654 h 21.799 c 6.306,0 13.103,-1.623 20.188,-4.828 7.146,-3.227 13.655,-7.834 19.338,-13.688 5.745,-5.92 10.022,-12.139 12.71,-18.486 2.804,-6.617 3.851,-12.879 3.021,-18.113 -0.033,-0.098 -0.181,-0.656 -0.011,-1.355 0.46,-1.875 1.867,-3.955 3.494,-6.364 z m -34.248,27.969 c -0.531,1.256 -1.362,2.467 -2.479,3.611 -1.058,1.096 -2.292,1.975 -3.666,2.613 -1.425,0.662 -2.836,0.996 -4.199,0.996 l -4.362,0.018 c -0.75,0 -1.459,-0.219 -2.059,-0.635 -0.794,-0.561 -1.279,-1.389 -1.383,-2.326 -0.082,-0.652 0.043,-1.35 0.362,-2.004 l 3.854,-9.045 c 0.237,-0.432 0.526,-0.816 0.883,-1.174 0.383,-0.385 0.814,-0.689 1.282,-0.926 0.573,-0.277 1.171,-0.424 1.786,-0.424 l 4.382,-0.014 c 1.465,0 2.781,0.395 3.917,1.168 1.35,0.928 2.156,2.297 2.338,3.98 0.149,1.371 -0.078,2.805 -0.656,4.162 z m 13.366,-31.043 c -0.577,1.33 -1.409,2.541 -2.475,3.598 -1.099,1.082 -2.316,1.936 -3.63,2.551 -1.392,0.652 -2.793,0.99 -4.156,0.994 l -4.362,0.018 c -0.754,0 -1.465,-0.221 -2.056,-0.633 -0.782,-0.537 -1.278,-1.363 -1.384,-2.322 -0.057,-0.477 -0.029,-1.205 0.383,-2.021 l 0.305,-0.713 c 1.296,-3.006 2.046,-4.75 3.444,-7.975 l 0.118,-0.244 c 0.238,-0.422 0.539,-0.814 0.891,-1.158 0.382,-0.377 0.808,-0.678 1.264,-0.902 0.575,-0.281 1.171,-0.42 1.78,-0.42 l 4.366,-0.014 c 1.463,0 2.78,0.385 3.908,1.146 1.349,0.912 2.157,2.283 2.338,3.963 0.132,1.304 -0.112,2.691 -0.734,4.132 z"
           id="path90"
           inkscape:connector-curvature="0"
           style="fill:#ebeaea" /></g><path
         d="m 574.047,474.167 c 4.868,-11.621 7.332,-17.477 12.271,-29.086 l 0.193,-0.455 0.346,-0.357 c 23.971,-24.977 35.104,-36.016 35.216,-36.125 2.404,-2.377 4.16,-4.807 5.222,-7.219 1,-2.27 1.376,-4.447 1.119,-6.459 -0.221,-1.707 -0.949,-2.93 -2.294,-3.848 -1.527,-1.039 -3.402,-1.551 -5.734,-1.551 -2.455,0 -5.159,0.611 -8.04,1.824 -2.917,1.219 -5.551,2.967 -7.82,5.191 -1.062,1.045 -4.523,5.279 -7.581,9.02 -8.463,10.357 -8.463,10.357 -10.108,10.357 h -0.518 l -2.319,-0.903 0.113,-1.961 c 0.378,-6.58 0.822,-16.537 0.623,-18.092 -0.213,-1.729 -0.938,-2.963 -2.271,-3.881 -1.517,-1.043 -3.386,-1.555 -5.708,-1.555 -2.438,0 -5.137,0.611 -8.003,1.824 -2.912,1.227 -5.54,2.988 -7.821,5.229 -2.246,2.213 -3.943,4.607 -5.043,7.123 -1.043,2.369 -1.438,4.605 -1.167,6.645 0.353,2.689 1.75,15.418 4.009,36.068 l 0.077,0.709 -0.278,0.648 c -4.952,11.594 -7.425,17.432 -12.283,28.984 -0.996,2.42 -1.36,4.76 -1.071,6.924 0.25,1.887 1.021,3.229 2.434,4.219 3.243,2.273 8.015,2.168 13.452,-0.26 2.858,-1.273 5.502,-3.139 7.86,-5.537 2.35,-2.386 4.073,-4.902 5.124,-7.476 z"
         id="path94"
         inkscape:connector-curvature="0"
         style="fill:#ebeaea" /></g></g><path
     d="m 2.389,58.346 c 0,0 21.322997,0.125 26.778997,-0.875 5.456,-1 5.456,-1 5.456,-1 0,0 -2.625,1.51 -4.125,1.88 -1.5,0.37 -1.5,0.37 -1.5,0.37 0,0 2,0.625 3.75,0 1.75,-0.625 1.75,-0.625 1.75,-0.625 0,0 -1.875,1 -3.5,1.5 -1.625,0.5 -1.625,0.5 -1.625,0.5 0.299,-0.092 0.549,-0.169 2,0.375 1.579,0.592 1.75,0.375 1.75,0.375 0,0 -21.095997,2.25 -30.734997,-0.75 L 0.062,59.534 2.389,59.409 c 0,0 -0.765,-0.062 -1.577,-0.688 C 0,58.095 0,58.096 0,58.096 c 0,0 1.716,0.247 2.389,0.25 z"
     id="path122"
     inkscape:connector-curvature="0"
     style="fill:#ffffff" /></svg>