<?xml version="1.0" encoding="UTF-8" standalone="no"?>
<!-- Created with Inkscape (http://www.inkscape.org/) -->

<svg
   xmlns:dc="http://purl.org/dc/elements/1.1/"
   xmlns:cc="http://creativecommons.org/ns#"
   xmlns:rdf="http://www.w3.org/1999/02/22-rdf-syntax-ns#"
   xmlns:svg="http://www.w3.org/2000/svg"
   xmlns="http://www.w3.org/2000/svg"
   xmlns:sodipodi="http://sodipodi.sourceforge.net/DTD/sodipodi-0.dtd"
   xmlns:inkscape="http://www.inkscape.org/namespaces/inkscape"
   version="1.1"
   id="svg4496"
   width="341.33334"
   height="341.33334"
   viewBox="0 0 341.33334 341.33334"
   sodipodi:docname="logo-mfc.svg"
   inkscape:version="0.92.1 r15371">
  <metadata
     id="metadata4502">
    <rdf:RDF>
      <cc:Work
         rdf:about="">
        <dc:format>image/svg+xml</dc:format>
        <dc:type
           rdf:resource="http://purl.org/dc/dcmitype/StillImage" />
        <dc:title></dc:title>
      </cc:Work>
    </rdf:RDF>
  </metadata>
  <defs
     id="defs4500" />
  <sodipodi:namedview
     pagecolor="#ffffff"
     bordercolor="#666666"
     borderopacity="1"
     objecttolerance="10"
     gridtolerance="10"
     guidetolerance="10"
     inkscape:pageopacity="0"
     inkscape:pageshadow="2"
     inkscape:window-width="1920"
     inkscape:window-height="1017"
     id="namedview4498"
     showgrid="false"
     inkscape:zoom="1.3828125"
     inkscape:cx="104.61856"
     inkscape:cy="139.65902"
     inkscape:window-x="-8"
     inkscape:window-y="-8"
     inkscape:window-maximized="1"
     inkscape:current-layer="svg4496" />
  <path
     style="fill:#363636;stroke-width:1.56610978;fill-opacity:1"
     d="m 159.31988,289.98212 c -5.73256,-2.07476 -12.68259,-8.59206 -16.70791,-15.66766 -2.76798,-4.86545 -3.42156,-8.57474 -3.33268,-18.91383 0.18907,-21.99189 9.61631,-49.60191 31.27404,-91.59388 19.46691,-37.74417 61.9146,-104.999111 68.27534,-108.176749 7.95188,-3.972531 13.35441,1.783228 13.23583,14.101222 -0.10666,11.071633 -3.93135,19.417208 -21.641,47.220177 -8.48147,13.31534 -18.4114,29.31644 -22.06652,35.558 l -6.64569,11.3483 3.85387,4.16354 c 4.1774,4.51305 7.22332,12.90112 7.23768,19.93163 l 0.01,4.42481 3.65477,-3.20502 c 2.01013,-1.76275 6.15287,-7.1584 9.20612,-11.99032 3.05322,-4.83192 6.33519,-9.46622 7.29321,-10.29843 0.95804,-0.83221 4.91517,-7.54771 8.79362,-14.92333 16.87201,-32.08542 47.40228,-48.63367 66.23329,-35.90028 13.39386,9.05684 17.052,17.92281 12.58028,30.49 -4.68303,13.16112 -11.81493,26.70809 -14.58254,27.69944 -3.48145,1.24708 -11.46974,-2.74855 -14.70239,-7.35391 -3.61622,-5.15177 -3.20443,-17.31783 0.87771,-25.93213 1.8451,-3.89358 3.08039,-7.33531 2.74511,-7.64828 -1.73374,-1.61839 -19.46741,19.12849 -24.48417,28.64439 -9.96867,18.90884 -11.2999,32.26967 -3.90317,39.1742 8.71581,8.13584 34.38618,-4.72983 48.544,-24.32964 12.90714,-17.86837 24.61041,-6.0923 12.8948,12.97499 -5.95312,9.68878 -15.6072,17.50865 -29.23923,23.68399 -9.39247,4.25481 -12.12008,4.77804 -25.12504,4.81957 -17.53635,0.056 -25.77425,-3.24034 -33.4278,-13.37598 l -4.88399,-6.46789 -6.6793,5.6992 c -3.67362,3.13457 -9.12676,6.92903 -12.11806,8.43214 -3.26357,1.63992 -5.77842,4.24582 -6.28804,6.51569 -2.05957,9.17351 -9.46484,30.29304 -13.63829,38.89587 -12.07381,24.88805 -25.35751,36.30178 -37.2429,32.00017 z m 12.19885,-37.2318 c 6.2929,-12.04654 13.73667,-30.55183 13.73667,-34.14949 0,-1.13037 -1.78382,-2.81388 -3.96404,-3.74116 -3.79971,-1.61606 -4.10907,-1.3282 -7.46307,6.94439 -5.30967,13.09616 -10.67587,30.45591 -11.99798,38.81366 -1.02917,6.50596 -0.87053,7.24363 1.21109,5.63101 1.31747,-1.02065 5.13228,-7.09493 8.47733,-13.49841 z M 11.525221,218.01786 C -1.0563774,204.56621 4.1089245,189.03033 39.845098,132.83902 58.079899,104.16675 89.36545,60.442638 92.915128,58.669322 c 5.131506,-2.563554 8.869602,-1.64858 14.021222,3.431976 12.01787,11.852077 11.79482,18.397466 -2.04722,60.075452 -5.865512,17.66087 -10.340938,32.41278 -9.945397,32.78199 0.395541,0.36923 1.815948,-0.88196 3.156458,-2.78039 1.34051,-1.89845 14.294709,-17.75057 28.787119,-35.22695 14.4924,-17.476376 31.05531,-38.073536 36.80646,-45.771464 9.01702,-12.069288 11.08966,-13.996234 15.05455,-13.996234 5.28008,0 12.41308,6.835641 13.9373,13.356299 0.51997,2.224433 1.24271,4.935449 1.60608,6.024478 1.64829,4.939959 -4.09615,18.339705 -24.29305,56.667131 -11.94601,22.66981 -25.8825,50.7504 -30.96996,62.40132 -5.08746,11.65092 -10.18093,22.10459 -11.31881,23.23039 -3.0127,2.9807 -8.59664,0.7812 -12.26198,-4.82994 -5.94787,-9.10542 -3.41763,-24.56155 8.31159,-50.77175 3.57747,-7.99424 5.44241,-13.51365 4.1443,-12.26534 -5.26276,5.06089 -28.726205,36.9748 -38.24956,52.02534 -7.908728,12.4988 -10.939617,16.06445 -13.655155,16.06445 -5.208578,0 -10.323319,-3.97897 -14.175773,-11.02791 -3.01184,-5.51084 -3.323245,-7.97807 -2.517856,-19.94866 0.752594,-11.18593 5.021362,-30.59419 10.284581,-46.75962 2.075857,-6.37577 -2.977096,0.049 -15.021835,19.09996 -6.972688,11.02861 -17.496771,28.90369 -23.386849,39.7224 -11.194215,20.56118 -14.396722,23.4687 -19.656122,17.84561 z"
     id="path5087"
     inkscape:connector-curvature="0" />
</svg>
