<?xml version="1.0" encoding="UTF-8" standalone="no"?>
<!-- Created with Inkscape (http://www.inkscape.org/) -->

<svg
   xmlns:dc="http://purl.org/dc/elements/1.1/"
   xmlns:cc="http://creativecommons.org/ns#"
   xmlns:rdf="http://www.w3.org/1999/02/22-rdf-syntax-ns#"
   xmlns:svg="http://www.w3.org/2000/svg"
   xmlns="http://www.w3.org/2000/svg"
   xmlns:sodipodi="http://sodipodi.sourceforge.net/DTD/sodipodi-0.dtd"
   xmlns:inkscape="http://www.inkscape.org/namespaces/inkscape"
   version="1.1"
   id="svg4485"
   width="256"
   height="256"
   viewBox="0 0 256 256"
   sodipodi:docname="logo-mfc.svg"
   inkscape:version="0.92.1 r15371">
  <metadata
     id="metadata4491">
    <rdf:RDF>
      <cc:Work
         rdf:about="">
        <dc:format>image/svg+xml</dc:format>
        <dc:type
           rdf:resource="http://purl.org/dc/dcmitype/StillImage" />
        <dc:title></dc:title>
      </cc:Work>
    </rdf:RDF>
  </metadata>
  <defs
     id="defs4489" />
  <sodipodi:namedview
     pagecolor="#ffffff"
     bordercolor="#666666"
     borderopacity="1"
     objecttolerance="10"
     gridtolerance="10"
     guidetolerance="10"
     inkscape:pageopacity="0"
     inkscape:pageshadow="2"
     inkscape:window-width="2560"
     inkscape:window-height="1017"
     id="namedview4487"
     showgrid="false"
     inkscape:zoom="1.4363107"
     inkscape:cx="176.07651"
     inkscape:cy="118.12331"
     inkscape:window-x="1912"
     inkscape:window-y="-8"
     inkscape:window-maximized="1"
     inkscape:current-layer="svg4485" />
  <path
     style="fill:#363636;fill-opacity:1"
     d="M 24.627496,246.53183 C 19.128563,244.57169 13.951368,240.06338 11.295174,234.92201 L 9.0106232,230.5 l 0.2601782,-75 0.2601782,-75 2.7397064,-9 C 21.728102,40.432163 40.163923,21.058164 68.537231,12.370113 77.225933,9.7095882 78.356194,9.6140449 105.5,9.2455751 c 23.49801,-0.3189792 28.58353,-0.1340527 31.62928,1.1501449 15.00933,6.32849 19.42981,24.871176 8.80633,36.94009 -6.87912,7.815098 -7.9882,8.075275 -36.93561,8.664683 -24.812112,0.505208 -25.649599,0.589116 -31.045631,3.110474 -3.050097,1.425192 -7.141453,3.99241 -9.091903,5.704928 C 61.639119,71.158077 56,85.879429 56,98.394345 V 105 h 38.877876 c 31.858634,0 39.510044,0.26413 42.379274,1.46298 10.95532,4.57742 16.54339,15.86306 13.70763,27.68384 -1.58899,6.62363 -9.20152,14.75225 -15.5808,16.63706 C 132.47202,151.64425 120.25889,152 93.63398,152 H 56 v 37.05718 c 0,25.17001 -0.378717,38.5612 -1.180617,41.74583 -0.868516,3.44919 -2.520729,6.02049 -6.25,9.72671 -7.201888,7.15737 -15.127143,9.14419 -23.941887,6.00211 z m 64,0 C 78.846951,243.04548 73,234.70063 73,224.22804 c 0,-10.09234 5.48171,-18.47149 14.681666,-22.44188 1.976978,-0.85319 14.759524,-1.38521 42.818334,-1.78213 38.37536,-0.54285 40.22766,-0.65669 45.60528,-2.80264 12.54253,-5.00512 19.26591,-11.83943 22.47531,-22.84615 1.25297,-4.29709 1.4523,-12.28818 1.20978,-48.5 C 199.5036,83.037376 199.4715,82.438026 197.20065,77.5 191.28487,64.635984 178.58697,57.482185 159.20538,56.094065 L 150.91076,55.5 l 3.05011,-4.139825 c 8.42842,-11.439657 8.21706,-27.571715 -0.51117,-39.015014 -1.34734,-1.766444 -2.44991,-3.354242 -2.45017,-3.5284391 -2.6e-4,-0.174197 5.73724,-0.01764 12.75,0.3479049 24.51571,1.2778982 45.11171,9.9140092 60.61359,25.4158892 10.00732,10.007318 16.61781,21.731303 20.81679,36.919484 2.09315,7.571156 2.23194,10.331842 2.58899,51.5 0.41389,47.72147 -0.0191,53.7847 -4.89123,68.5 -9.77528,29.52401 -34.25838,48.95726 -69.25866,54.97345 -12.243,2.10445 -79.122637,2.15039 -84.991514,0.0584 z"
     id="path4495"
     inkscape:connector-curvature="0" />
</svg>
