<?xml version="1.0" encoding="UTF-8" standalone="no"?>
<!-- Created with Inkscape (http://www.inkscape.org/) -->

<svg
   xmlns:dc="http://purl.org/dc/elements/1.1/"
   xmlns:cc="http://creativecommons.org/ns#"
   xmlns:rdf="http://www.w3.org/1999/02/22-rdf-syntax-ns#"
   xmlns:svg="http://www.w3.org/2000/svg"
   xmlns="http://www.w3.org/2000/svg"
   xmlns:sodipodi="http://sodipodi.sourceforge.net/DTD/sodipodi-0.dtd"
   xmlns:inkscape="http://www.inkscape.org/namespaces/inkscape"
   width="123.88995mm"
   height="106.07323mm"
   viewBox="0 0 123.88995 106.07324"
   version="1.1"
   id="svg8"
   inkscape:version="0.92.1 r15371"
   sodipodi:docname="logo.svg">
  <defs
     id="defs2" />
  <sodipodi:namedview
     id="base"
     pagecolor="#ffffff"
     bordercolor="#666666"
     borderopacity="1.0"
     inkscape:pageopacity="0.0"
     inkscape:pageshadow="2"
     inkscape:zoom="0.7"
     inkscape:cx="327.27418"
     inkscape:cy="215.65981"
     inkscape:document-units="mm"
     inkscape:current-layer="layer1"
     showgrid="false"
     fit-margin-top="0"
     fit-margin-left="0"
     fit-margin-right="0"
     fit-margin-bottom="0"
     inkscape:window-width="2560"
     inkscape:window-height="1017"
     inkscape:window-x="1912"
     inkscape:window-y="-8"
     inkscape:window-maximized="1" />
  <metadata
     id="metadata5">
    <rdf:RDF>
      <cc:Work
         rdf:about="">
        <dc:format>image/svg+xml</dc:format>
        <dc:type
           rdf:resource="http://purl.org/dc/dcmitype/StillImage" />
        <dc:title></dc:title>
      </cc:Work>
    </rdf:RDF>
  </metadata>
  <g
     inkscape:label="Capa 1"
     inkscape:groupmode="layer"
     id="layer1"
     transform="translate(-30.105328,-76.699651)">
    <g
       id="g4503"
       transform="matrix(0.35277777,0,0,-0.35277777,77.404044,129.24383)">
      <path
         d="m 0,0 c 0,0 -0.144,-9.517 3.688,-10.569 3.832,-1.054 7.291,-2.665 10.566,1.784 3.275,4.449 4.138,8.112 3.322,8.785 C 16.759,0.672 16.775,0 15.202,0 13.628,0 11.416,-4.047 9.753,-1.109 8.09,1.829 8.932,3.313 8.932,3.313 c 0,0 -7.414,3.716 -7.788,2.56 C 0.771,4.717 -0.19,3.35 0,0"
         style="fill:#274797;fill-opacity:1;fill-rule:nonzero;stroke:none"
         id="path4505"
         inkscape:connector-curvature="0" />
    </g>
    <g
       id="g4507"
       transform="matrix(0.35277777,0,0,-0.35277777,39.077524,132.94729)">
      <path
         d="m 0,0 c 0,0 5.971,9.893 14.254,14.963 8.284,5.07 10.595,6.032 10.595,6.032 0,0 -12.906,-3.081 -18.878,-9.054 C 0,5.971 0.193,2.889 0,0"
         style="fill:#ebebeb;fill-opacity:1;fill-rule:nonzero;stroke:none"
         id="path4509"
         inkscape:connector-curvature="0" />
    </g>
    <g
       id="g4511"
       transform="matrix(0.35277777,0,0,-0.35277777,60.958884,150.23926)">
      <path
         d="m 0,0 c 0,0 0.193,15.69 7.32,24.358 l 7.127,8.669 C 14.447,33.027 1.541,14.743 0,0"
         style="fill:#ebebeb;fill-opacity:1;fill-rule:nonzero;stroke:none"
         id="path4513"
         inkscape:connector-curvature="0" />
    </g>
    <g
       id="g4515"
       transform="matrix(0.35277777,0,0,-0.35277777,76.112984,150.24032)">
      <path
         d="m 0,0 c 0,0 -7.898,8.564 -11.943,19.16 -4.045,10.595 -4.431,13.87 -4.431,13.87 0,0 -6.164,-4.239 -10.209,2.696 -4.045,6.934 -13.291,24.462 -8.09,30.628 5.201,6.165 12.13,6.934 16.563,5.394 4.433,-1.541 3.663,-3.469 2.122,-3.083 -1.541,0.386 -6.164,2.312 -11.558,-0.578 -5.393,-2.89 -7.512,-3.081 -4.815,-12.521 2.696,-9.439 6.933,-19.455 9.631,-20.803 2.696,-1.349 2.504,-2.118 5.972,-0.385 3.467,1.733 2.311,0.385 3.851,-4.816 C -11.365,24.361 -7.213,8.778 3.501,0.003 14.215,-8.773 14.639,-12.816 11.365,-11.66 8.091,-10.506 2.504,-0.668 0,0"
         style="fill:#ebebeb;fill-opacity:1;fill-rule:nonzero;stroke:none"
         id="path4517"
         inkscape:connector-curvature="0" />
    </g>
    <g
       id="g4519"
       transform="matrix(0.35277777,0,0,-0.35277777,106.32543,118.88169)">
      <path
         d="m 0,0 c 5.249,-1.34 8.095,-3.645 9.904,-5.049 0.393,0.104 0.789,0.307 1.124,0.709 1.156,1.391 1.156,2.329 1.156,2.329 0,0 0.119,-2.401 -1.343,-3.736 0.051,-0.034 0.096,-0.059 0.144,-0.089 2.596,0.83 4.81,6.166 4.81,6.166 0,0 0.016,-0.224 0.021,-0.587 -0.002,-0.032 0.004,-0.056 10e-4,-0.089 0.017,-1.498 -0.144,-5.121 -1.977,-6.78 -2.341,-2.118 -6.327,-1.927 -6.327,-1.927 0,0 -4.431,5.78 -12.136,5.076 -7.705,-0.701 -16.181,-4.304 -16.181,-4.304 0,0 11.75,10.594 20.804,8.281"
         style="fill:#ebebeb;fill-opacity:1;fill-rule:nonzero;stroke:none"
         id="path4521"
         inkscape:connector-curvature="0" />
    </g>
    <g
       id="g4523"
       transform="matrix(0.35277777,0,0,-0.35277777,76.928284,118.88169)">
      <path
         d="m 0,0 c -5.249,-1.34 -8.095,-3.645 -9.903,-5.049 -0.394,0.104 -0.789,0.307 -1.125,0.709 -1.156,1.391 -1.156,2.329 -1.156,2.329 0,0 -0.119,-2.401 1.343,-3.736 -0.051,-0.034 -0.095,-0.059 -0.144,-0.089 -2.596,0.83 -4.81,6.166 -4.81,6.166 0,0 -0.016,-0.224 -0.021,-0.587 0.002,-0.032 -0.003,-0.056 -10e-4,-0.089 -0.016,-1.498 0.144,-5.121 1.977,-6.78 2.341,-2.118 6.328,-1.927 6.328,-1.927 0,0 4.43,5.78 12.136,5.076 7.704,-0.701 16.18,-4.304 16.18,-4.304 0,0 -11.75,10.594 -20.804,8.281"
         style="fill:#ebebeb;fill-opacity:1;fill-rule:nonzero;stroke:none"
         id="path4525"
         inkscape:connector-curvature="0" />
    </g>
    <g
       id="g4527"
       transform="matrix(0.35277777,0,0,-0.35277777,72.045884,107.09083)">
      <path
         d="M 0,0 C 0,0 -4.893,-8.38 -1.979,-19.07 0.934,-29.761 11.047,-36.784 11.047,-36.784 H 7.146 c 0,0 -6.955,4.134 -10.05,13.38 L -6,-14.158 c 0,0 -1.156,-12.136 0,-17.048 1.155,-4.912 1.444,-6.58 1.444,-6.58 l -5.779,-2.69 -1.926,-1.036 c 0,0 1.637,1.734 4.238,2.89 l 2.601,1.156 c 0,0 -2.794,4.911 -2.601,15.313 C -7.831,-11.751 -2.957,-3.179 0,0"
         style="fill:#ebebeb;fill-opacity:1;fill-rule:nonzero;stroke:none"
         id="path4529"
         inkscape:connector-curvature="0" />
    </g>
    <g
       id="g4531"
       transform="matrix(0.35277777,0,0,-0.35277777,80.258124,119.83253)">
      <path
         d="m 0,0 c 0,-0.045 0.105,3.182 1.333,8.164 1.396,5.665 4.242,13.604 10.032,21.598 10.884,15.025 19.456,19.841 19.456,19.841 0,0 2.407,0.481 -1.253,-3.661 -3.659,-4.141 -11.653,-30.145 -9.149,-38.718 2.504,-8.572 7.718,-9.15 11.179,-8.284 3.46,0.868 4.712,1.076 4.327,0.394 -0.385,-0.682 -2.216,-1.163 -3.467,-1.645 -1.252,-0.482 -9.15,-2.683 -11.461,1.645 -2.312,4.326 -6.069,17.135 -0.675,30.812 5.394,13.678 5.972,14.352 5.972,14.352 0,0 -14.639,-13.968 -19.937,-29.137 C 1.06,0.193 2.793,-1.156 2.793,-1.156 Z"
         style="fill:#ebebeb;fill-opacity:1;fill-rule:nonzero;stroke:none"
         id="path4533"
         inkscape:connector-curvature="0" />
    </g>
    <g
       id="g4535"
       transform="matrix(0.35277777,0,0,-0.35277777,81.192454,131.96237)">
      <path
         d="M 0,0 C 0,0 -2.794,1.589 -3.347,0 -3.9,-1.589 -3.432,-2.511 -1.235,-2.792 0.962,-3.073 3.179,-2.601 0,0"
         style="fill:#ebebeb;fill-opacity:1;fill-rule:nonzero;stroke:none"
         id="path4537"
         inkscape:connector-curvature="0" />
    </g>
    <g
       id="g4539"
       transform="matrix(0.35277777,0,0,-0.35277777,83.587994,125.13281)">
      <path
         d="m 0,0 c 0,0 -2.786,8.523 -10.35,6.212 -7.565,-2.311 -9.009,-15.748 -7.998,-21.815 1.011,-6.068 6.342,-8.379 10.323,-7.513 3.98,0.867 2.333,1.097 2.333,1.097 0,0 -2.831,-1.189 -5.433,-0.204 -2.6,0.986 -6.79,5.535 -4.478,15.035 2.311,9.5 7.946,9.933 9.391,9.5 0,0 -2.601,-2.167 -0.867,-4.768 1.733,-2.602 5.634,-2.312 5.923,-1.879 0.289,0.434 1.445,0 1.156,4.335"
         style="fill:#ebebeb;fill-opacity:1;fill-rule:nonzero;stroke:none"
         id="path4541"
         inkscape:connector-curvature="0" />
    </g>
    <g
       id="g4543"
       transform="matrix(0.35277777,0,0,-0.35277777,81.090644,126.91702)">
      <path
         d="m 0,0 c 0,0 -2.408,-1.01 -2.36,-4.767 0.048,-3.756 3.516,-4.912 5.25,-3.756 1.733,1.156 2.456,4.407 1.299,6.393 -1.155,1.986 0.145,-3.117 -1.011,-4.466 -1.156,-1.349 -3.705,-1.494 -3.875,1.54 -0.17,3.035 1.644,3.902 1.893,4.334 C 1.445,-0.288 0.867,2.023 0,0"
         style="fill:#ebebeb;fill-opacity:1;fill-rule:nonzero;stroke:none"
         id="path4545"
         inkscape:connector-curvature="0" />
    </g>
    <g
       id="g4547"
       transform="matrix(0.35277777,0,0,-0.35277777,65.987694,114.39616)">
      <path
         d="M 0,0 C 0,0 -0.012,-0.049 -0.03,-0.124 0.004,-0.006 0,0 0,0"
         style="fill:#ebebeb;fill-opacity:1;fill-rule:nonzero;stroke:none"
         id="path4549"
         inkscape:connector-curvature="0" />
    </g>
    <g
       id="g4551"
       transform="matrix(0.35277777,0,0,-0.35277777,88.684504,138.07845)">
      <path
         d="m 0,0 c 0,0 0.289,-2.311 2.89,-2.889 l 2.6,-0.578 c 0,0 -2.889,3.178 -5.49,3.467"
         style="fill:#ebebeb;fill-opacity:1;fill-rule:nonzero;stroke:none"
         id="path4553"
         inkscape:connector-curvature="0" />
    </g>
    <g
       id="g4555"
       transform="matrix(0.35277777,0,0,-0.35277777,111.12239,93.363856)">
      <path
         d="m 0,0 c -7.25,5.555 -16.84,10.261 -31.531,13.677 0,0 14.56,-4.798 27.342,-13.941 C -2.807,-0.098 -1.411,-0.008 0,0"
         style="fill:#ebebeb;fill-opacity:1;fill-rule:nonzero;stroke:none"
         id="path4557"
         inkscape:connector-curvature="0" />
    </g>
    <g
       id="g4559"
       transform="matrix(0.35277777,0,0,-0.35277777,75.399524,148.50948)">
      <path
         d="m 0,0 -2.601,-1.54 c 0,0 -0.25,-0.106 -0.667,-0.366 -0.016,-0.02 -3.135,-3.642 -2.271,-8.399 0.867,-4.767 4.913,-8.38 4.913,-8.38 l -1.156,-1.733 c 0,0 -6.351,6.201 -6.149,12.869 -1.426,-3.857 -2.267,-10.562 -0.93,-18.359 0.322,-1.879 -10.109,-2.391 -10.547,-1.879 -2.793,3.275 -8.427,16.424 -8.042,22.884 0.385,6.46 1.734,10.682 1.734,10.682 0,0 0.193,1.157 -4.816,-4.429 -0.611,-0.682 -1.175,-1.537 -1.696,-2.51 0,0 -5.331,-11.891 -4.635,-20.703 0.697,-8.813 3.153,-10.98 3.153,-10.98 h -3.215 c 0,0 -2.867,3.57 -3.174,11.286 l -14.704,-0.98 -2.119,2.505 c -2.12,2.505 -4.623,8.669 -4.623,8.669 -8.091,22.923 17.914,54.705 17.914,54.705 0,0 -7.127,2.312 -24.271,-17.53 -17.144,-19.841 -6.164,-40.437 -6.164,-40.437 l -4.045,-0.977 c 0,0 -3.468,-0.962 -6.357,3.661 -2.889,4.623 -5.008,20.418 1.349,40.257 6.356,19.842 17.336,24.272 17.336,24.272 -8.09,-1.541 -21.96,-7.897 -31.013,-23.887 -9.054,-15.988 -3.274,-24.655 -3.274,-24.655 0,0 -7.321,0.577 -9.632,2.311 -2.312,1.735 -4.623,9.825 -4.046,17.336 0.579,7.514 4.431,13.1 4.431,13.1 -2.696,7.512 -3.082,23.115 15.603,35.443 18.686,12.328 39.489,18.107 39.489,18.107 0,0 -0.578,-5.971 0.771,-11.943 1.349,-5.972 5.297,-6.429 5.297,-6.429 1.221,-0.704 14.086,5.756 17.119,7.224 3.034,1.468 2.529,2.519 2.529,5.119 0,2.6 0.072,4.706 0.072,4.706 0.777,3.56 1.571,6.9 1.728,7.555 -0.084,-0.297 -0.416,-1.319 -1.704,-4.884 -2.48,-6.862 -1.348,-10.017 -2.312,-10.403 -0.962,-0.385 -14.061,-7.897 -15.795,-7.897 -1.733,0 -5.008,3.467 -5.201,12.135 -0.155,6.994 -3.087,39.449 20.034,62.654 -3.649,2.144 -3.415,3.726 -3.757,7.656 -0.771,8.861 2.139,7.539 7.147,10.236 5.009,2.696 8.091,2.696 8.476,5.008 0.386,2.311 -0.431,-2.118 3.637,-3.371 4.068,-1.252 6.38,2.986 7.536,7.224 1.155,4.237 -1.095,1.598 -3.852,4.237 -1.233,1.178 -2.155,2.842 -2.08,4.528 -64.043,-7.241 -113.813,-61.587 -113.813,-127.565 0,-57.486 37.783,-106.145 89.868,-122.508 2.919,1.39 6.452,2.037 6.452,2.037 0,0 -7.705,1.927 -8.091,5.395 -0.385,3.466 14.255,14.64 21.241,18.107 6.986,3.467 13.818,-3.082 13.818,-3.082 0,0 0,1.155 5.105,8.475 5.105,7.319 9.15,7.706 13.772,4.238 4.624,-3.467 13.484,-12.713 13.484,-12.713 l 6.935,20.418 -8.09,3.468 C 18.01,-16.564 0,0 0,0"
         style="fill:#ebebeb;fill-opacity:1;fill-rule:nonzero;stroke:none"
         id="path4561"
         inkscape:connector-curvature="0" />
    </g>
    <g
       id="g4563"
       transform="matrix(0.35277777,0,0,-0.35277777,56.202244,112.28916)">
      <path
         d="m 0,0 2.697,-17.146 c 0,0 4.373,33.162 25.011,49.314 L 34.673,38.007 22.73,45.508 13.483,41.799 4.237,23.692 Z"
         style="fill:#ebebeb;fill-opacity:1;fill-rule:nonzero;stroke:none"
         id="path4565"
         inkscape:connector-curvature="0" />
    </g>
    <g
       id="g4567"
       transform="matrix(0.35277777,0,0,-0.35277777,72.907324,93.935746)">
      <path
         d="m 0,0 c 0.075,-0.039 0.092,-0.049 0,0 m -0.396,0.21 c -0.188,0.099 -0.446,0.235 -0.779,0.411 0.12,-0.062 0.477,-0.252 0.779,-0.411 m 101.901,1.25 c 9.542,1.063 20.096,0.916 29.401,-1.926 0.142,2.123 0.27,5.737 -0.156,9.118 -0.657,5.202 -7.435,8.668 -7.435,8.668 0,0 -10.113,-13.58 -10.98,-13.58 -0.866,0 9.247,16.758 9.247,16.758 0,0 -2.023,-2.021 -6.593,-1.856 -4.57,0.166 -2.943,2.145 -2.943,2.145 l -5.096,-5.489 c -5.096,-5.49 -6.75,-6.068 -6.461,-5.49 0.288,0.577 13.291,17.047 14.157,19.759 0.868,2.712 0.29,2.779 -4.099,4.8 -4.389,2.024 -8.902,3.179 -10.058,3.468 -1.156,0.289 -2.89,-3.179 -5.201,-8.834 -2.311,-5.655 -3.052,-13.703 -3.052,-13.703 0,0 -1.282,6.356 0,11.847 1.282,5.49 4.785,10.113 4.785,10.113 0,0 -1.444,-1.445 -4.785,-3.469 -3.341,-2.021 -4.75,0 -6.194,0 -1.445,0 -3.468,1.156 -4.334,0 -0.867,-1.154 -4.913,-4.222 -4.913,-4.222 0,0 2.601,3.645 3.179,7.113 0.578,3.466 0.867,7.222 -3.179,9.246 -4.045,2.022 -12.424,3.178 -16.469,2.888 -4.045,-0.289 -4.334,-3.177 -6.068,-10.979 -1.734,-7.802 2.571,-18.203 2.571,-18.203 0,0 -0.837,0.577 -3.438,5.778 -2.6,5.201 -3.068,10.692 -3.068,10.692 0,0 -4.444,5.49 -7.623,6.934 -3.178,1.444 -5.779,1.444 -10.498,-0.289 -4.72,-1.733 -11.221,-6.13 -11.221,-6.13 0,0 1.494,-2.828 3.412,-7.616 1.918,-4.789 -1.893,-9.658 -1.893,-9.658 0,0 0.552,1.155 0,4.623 -0.553,3.468 -4.36,9.823 -6.96,11.557 -2.601,1.735 -4.623,1.157 -11.269,0 -6.646,-1.156 -7.512,-5.779 -4.912,-8.089 2.6,-2.313 6.357,-3.756 3.756,-9.247 -2.6,-5.49 -6.356,-7.513 -7.535,-8.379 -1.179,-0.867 -3.083,1.147 0,-3.187 3.082,-4.334 3.201,-5.976 3.201,-5.976 -2.889,1.526 -10.691,10.607 -12.713,11.763 -2.023,1.156 0,0 -5.49,-2.311 -5.49,-2.312 -8.38,-5.49 -4.912,-11.847 3.467,-6.356 14.736,-9.824 14.736,-9.824 0,0 5.944,5.994 23.489,15.603 18.968,10.388 51.116,12.043 70.675,6.068 5.736,-1.753 11.563,-4.97 16.939,-8.637"
         style="fill:#ebebeb;fill-opacity:1;fill-rule:nonzero;stroke:none"
         id="path4569"
         inkscape:connector-curvature="0" />
    </g>
    <g
       id="g4571"
       transform="matrix(0.35277777,0,0,-0.35277777,83.112414,104.81468)">
      <path
         d="m 0,0 c 0,0 -6.24,-11.943 -7.261,-22.345 -1.022,-10.402 0.487,-17.348 0,-17.2 -0.488,0.149 0.833,1.212 0.833,1.212 0,0 -0.777,13.144 2.574,25.234 C -0.504,-1.008 0,0 0,0"
         style="fill:#ebebeb;fill-opacity:1;fill-rule:nonzero;stroke:none"
         id="path4573"
         inkscape:connector-curvature="0" />
    </g>
    <g
       id="g4575"
       transform="matrix(0.35277777,0,0,-0.35277777,153.96973,129.7017)">
      <path
         d="m 0,0 c -0.279,2.994 -1.393,5.127 -3.504,6.716 -2.348,1.763 -5.238,2.62 -8.828,2.62 h -46.251 c 8.82,19.687 18.452,41.116 29.446,65.516 1.758,3.844 2.472,7.459 2.131,10.755 -0.291,2.857 -1.42,4.897 -3.553,6.418 -2.403,1.716 -5.355,2.55 -9.021,2.55 -3.864,0 -8.141,-1.01 -12.707,-3 -4.647,-2.025 -8.892,-4.929 -12.615,-8.629 -3.746,-3.72 -6.594,-7.68 -8.459,-11.757 L -85.496,44.358 c -0.332,-0.877 -0.859,-1.668 -1.572,-2.359 -0.641,-0.623 -1.393,-1.129 -2.227,-1.499 -0.928,-0.406 -1.849,-0.607 -2.746,-0.607 l -13.904,-0.035 c -1.705,0 -2.866,0.679 -3.541,1.25 -1.053,0.902 -1.699,2.157 -1.827,3.548 -0.085,0.818 0.018,1.714 0.309,2.609 l 0.173,0.449 12.222,27.018 c 1.769,3.862 2.491,7.498 2.154,10.823 -0.293,2.871 -1.426,4.924 -3.566,6.458 -2.409,1.724 -5.366,2.562 -9.043,2.562 -3.872,0 -8.161,-1.019 -12.75,-3.025 -4.659,-2.032 -8.916,-4.949 -12.653,-8.668 -3.76,-3.737 -6.618,-7.717 -8.495,-11.817 l -3.184,-7.043 c -16.506,-36.485 -33.012,-72.97 -49.408,-109.505 -1.697,-3.749 -2.331,-7.281 -1.893,-10.519 0.388,-2.857 1.578,-4.878 3.745,-6.362 5.066,-3.475 12.759,-3.319 21.564,0.424 4.618,1.957 8.863,4.811 12.611,8.483 3.759,3.679 6.588,7.587 8.409,11.612 5.806,13.03 8.79,19.673 14.749,32.919 0.33,0.873 0.854,1.663 1.565,2.358 0.656,0.639 1.409,1.145 2.243,1.51 0.9,0.395 1.825,0.595 2.747,0.595 l 13.923,0.045 c 1.358,0 2.582,-0.437 3.552,-1.265 1.019,-0.866 1.661,-2.1 1.81,-3.465 0.069,-0.679 0.03,-1.35 -0.113,-2.013 -0.726,-1.215 -1.377,-2.44 -1.928,-3.674 -14.815,-33.498 -29.709,-66.979 -44.608,-100.455 l -7.309,-16.438 c -1.649,-3.655 -2.266,-7.066 -1.844,-10.158 0.37,-2.71 1.516,-4.652 3.601,-6.101 2.368,-1.65 5.298,-2.451 8.957,-2.451 3.914,0 8.205,1.001 12.754,2.978 4.605,1.998 8.754,4.813 12.333,8.367 3.579,3.555 6.27,7.276 8.002,11.067 l 13.264,29.853 c 0.366,0.654 0.848,1.281 1.43,1.86 0.633,0.62 1.314,1.106 2.033,1.459 0.916,0.449 1.865,0.67 2.835,0.67 l 24.143,0.023 c 3.764,0.005 7.969,1.016 12.5,3.014 4.606,2.03 8.872,4.989 12.678,8.797 3.737,3.746 6.574,7.771 8.426,11.966 1.768,3.99 2.51,7.729 2.205,11.099 -0.266,3.005 -1.353,5.139 -3.422,6.723 -2.291,1.755 -5.14,2.612 -8.713,2.612 l -24.148,-0.02 c -1.219,0 -2.363,0.368 -3.322,1.064 -1.246,0.904 -2.016,2.257 -2.167,3.813 -0.011,0.111 -0.003,0.221 -0.007,0.331 0.584,0.998 1.105,2.006 1.56,3.02 0.699,1.57 1.401,3.147 2.105,4.729 0.492,0.389 1.013,0.739 1.593,0.997 0.898,0.404 1.826,0.612 2.743,0.612 l 39.071,0.028 c 3.736,0.002 7.914,1.036 12.422,3.076 4.588,2.077 8.855,5.101 12.684,8.987 3.839,3.896 6.732,7.991 8.593,12.167 C -0.412,-7.187 0.318,-3.438 0,0"
         style="fill:#ebebeb;fill-opacity:1;fill-rule:nonzero;stroke:none"
         id="path4577"
         inkscape:connector-curvature="0" />
    </g>
  </g>
</svg>
