<?xml version="1.0" encoding="UTF-8" standalone="no"?>
<!-- Generator: Adobe Illustrator 16.0.4, SVG Export Plug-In . SVG Version: 6.00 Build 0)  -->

<svg
   xmlns:dc="http://purl.org/dc/elements/1.1/"
   xmlns:cc="http://creativecommons.org/ns#"
   xmlns:rdf="http://www.w3.org/1999/02/22-rdf-syntax-ns#"
   xmlns:svg="http://www.w3.org/2000/svg"
   xmlns="http://www.w3.org/2000/svg"
   xmlns:xlink="http://www.w3.org/1999/xlink"
   xmlns:sodipodi="http://sodipodi.sourceforge.net/DTD/sodipodi-0.dtd"
   xmlns:inkscape="http://www.inkscape.org/namespaces/inkscape"
   version="1.1"
   x="0px"
   y="0px"
   width="180"
   height="38"
   viewBox="0 0 180 38"
   enable-background="new 0 0 294 62"
   xml:space="preserve"
   id="svg156"
   sodipodi:docname="mikandi-japan-logo4.svg"
   inkscape:version="0.92.1 r15371"><metadata
     id="metadata162"><rdf:RDF><cc:Work
         rdf:about=""><dc:format>image/svg+xml</dc:format><dc:type
           rdf:resource="http://purl.org/dc/dcmitype/StillImage" /><dc:title></dc:title></cc:Work></rdf:RDF></metadata><defs
     id="defs160" /><sodipodi:namedview
     pagecolor="#ffffff"
     bordercolor="#666666"
     borderopacity="1"
     objecttolerance="10"
     gridtolerance="10"
     guidetolerance="10"
     inkscape:pageopacity="0"
     inkscape:pageshadow="2"
     inkscape:window-width="1920"
     inkscape:window-height="1017"
     id="namedview158"
     showgrid="false"
     inkscape:zoom="3.3575546"
     inkscape:cx="131.25597"
     inkscape:cy="-13.832195"
     inkscape:window-x="-8"
     inkscape:window-y="-8"
     inkscape:window-maximized="1"
     inkscape:current-layer="svg156"
     scale-x="1" /><g
     id="Layer_1_xA0_Image_1_"
     transform="matrix(0.59557877,0,0,0.59557877,2.4044212,-0.35528658)"><g
       id="g26"><path
         d="m 77.405,39.416 -1.056,-2.111 v 12.287 l 0.32,2.4 H 73.725 V 33.881 l -0.416,-2.944 h 2.112 l 9.536,13.599 8.639,-13.599 h 1.792 v 18.655 l 0.32,2.4 h -3.2 V 37.177 l -1.12,2.239 -6.56,10.208 z"
         id="path2"
         style="fill:#ffffff;fill-opacity:1"
         inkscape:connector-curvature="0" /><path
         d="m 105.405,49.592 0.32,2.4 h -3.2 V 33.881 l -0.416,-2.944 h 3.295 v 18.655 z"
         id="path4"
         style="fill:#ffffff;fill-opacity:1"
         inkscape:connector-curvature="0" /><path
         d="m 123.42,51.992 -8.032,-10.656 v 8.256 l 0.32,2.4 h -3.2 V 33.881 l -0.416,-2.944 h 3.295 v 10.016 l 6.496,-7.936 0.928,-2.081 h 4.127 l -8.319,9.983 8.607,11.072 h -3.806 z"
         id="path6"
         style="fill:#ffffff;fill-opacity:1"
         inkscape:connector-curvature="0" /><path
         d="m 135.484,30.937 1.952,-0.416 6.528,17.951 1.6,3.52 h -3.488 l -2.016,-5.504 h -7.839 l -2.08,5.504 h -2.784 z m -2.4,13.12 h 6.176 l -2.656,-7.359 -0.32,-1.248 -0.384,1.279 z"
         id="path8"
         style="fill:#ffffff;fill-opacity:1"
         inkscape:connector-curvature="0" /><path
         d="m 166.396,49.592 0.191,2.4 h -1.504 l -11.999,-13.439 -1.376,-2.08 v 13.119 l 0.32,2.4 h -2.943 V 33.881 l -0.417,-2.944 h 1.952 l 11.743,13.311 1.408,2.08 V 33.881 l -0.416,-2.944 h 3.04 v 18.655 z"
         id="path10"
         style="fill:#ffffff;fill-opacity:1"
         inkscape:connector-curvature="0" /><path
         d="m 189.563,41.336 c 0,5.984 -3.808,10.656 -9.76,10.656 h -6.591 V 33.881 l -0.416,-2.944 h 7.967 c 4.449,0 8.8,3.264 8.8,10.399 z m -13.47,-8.095 v 16.446 h 4.096 c 3.647,0 6.271,-3.711 6.271,-8.159 0,-4.512 -2.624,-8.287 -6.271,-8.287 z"
         id="path12"
         style="fill:#ffffff;fill-opacity:1"
         inkscape:connector-curvature="0" /><path
         d="m 197.469,49.592 0.319,2.4 h -3.199 V 33.881 l -0.416,-2.944 h 3.296 z"
         id="path14"
         style="fill:#ffffff;fill-opacity:1"
         inkscape:connector-curvature="0" /><path
         d="m 215.899,50.775 c 0,3.936 -1.888,7.584 -6.271,7.584 -0.512,0 -1.088,-0.064 -1.728,-0.191 l 0.159,-2.816 c 0.544,0.256 1.057,0.416 1.568,0.416 2.08,0 3.392,-2.305 3.392,-4.992 V 33.881 l -0.416,-2.944 h 3.296 z"
         id="path16"
         style="fill:#ffffff;fill-opacity:1"
         inkscape:connector-curvature="0" /><path
         d="m 227.195,30.937 1.952,-0.416 6.527,17.951 1.6,3.52 h -3.487 l -2.017,-5.504 h -7.839 l -2.08,5.504 h -2.784 z m -2.399,13.12 h 6.175 l -2.655,-7.359 -0.32,-1.248 -0.384,1.279 z"
         id="path18"
         style="fill:#ffffff;fill-opacity:1"
         inkscape:connector-curvature="0" /><path
         d="m 246.523,30.937 c 3.52,0 6.912,2.016 6.912,6.336 0,3.646 -3.393,6.847 -8,6.847 h -1.567 v 5.472 l 0.319,2.4 h -3.199 V 33.881 l -0.416,-2.944 z m -0.576,10.815 c 2.368,0 4.448,-1.728 4.448,-4.479 0,-2.625 -2.08,-3.969 -4.448,-3.969 h -2.079 v 8.447 h 2.079 z"
         id="path20"
         style="fill:#ffffff;fill-opacity:1"
         inkscape:connector-curvature="0" /><path
         d="m 261.532,30.937 1.952,-0.416 6.527,17.951 1.6,3.52 h -3.487 l -2.017,-5.504 h -7.839 l -2.08,5.504 h -2.784 z m -2.399,13.12 h 6.175 l -2.655,-7.359 -0.32,-1.248 -0.384,1.279 z"
         id="path22"
         style="fill:#ffffff;fill-opacity:1"
         inkscape:connector-curvature="0" /><path
         d="m 292.442,49.592 0.192,2.4 h -1.504 l -11.999,-13.439 -1.376,-2.08 v 13.119 l 0.32,2.4 h -2.944 V 33.881 l -0.416,-2.944 h 1.952 l 11.743,13.311 1.408,2.08 V 33.881 l -0.416,-2.944 h 3.039 v 18.655 z"
         id="path24"
         style="fill:#ffffff;fill-opacity:1"
         inkscape:connector-curvature="0" /></g></g><g
     id="Logo_1_"
     transform="matrix(0.59557877,0,0,0.59557877,2.4044212,-0.35528658)"><g
       id="g152"><defs
         id="defs30"><circle
           id="SVGID_1_"
           cx="30"
           cy="32.938"
           r="29" /></defs><clipPath
         id="SVGID_2_"><use
           xlink:href="#SVGID_1_"
           overflow="visible"
           id="use32"
           style="overflow:visible"
           x="0"
           y="0"
           width="100%"
           height="100%" /></clipPath><linearGradient
         id="SVGID_3_"
         gradientUnits="userSpaceOnUse"
         x1="30"
         y1="3.9375"
         x2="30"
         y2="61.938"><stop
           offset="0"
           style="stop-color:#FF0000"
           id="stop35" /><stop
           offset="1"
           style="stop-color:#541A00"
           id="stop37" /></linearGradient><circle
         clip-path="url(#SVGID_2_)"
         cx="30"
         cy="32.938"
         r="29"
         id="circle40"
         style="fill:url(#SVGID_3_)" /><linearGradient
         id="SVGID_4_"
         gradientUnits="userSpaceOnUse"
         x1="39.725601"
         y1="29.8643"
         x2="57.439499"
         y2="29.8643"><stop
           offset="0"
           style="stop-color:#FF0000"
           id="stop42" /><stop
           offset="1"
           style="stop-color:#FF987F"
           id="stop44" /></linearGradient><path
         clip-path="url(#SVGID_2_)"
         d="M 41.125,11.381 C 38.461,8.717 39.693,7.113 44.017,9.548 64.459,21.381 57.348,46.566 50.046,51.38 49.635,50.969 61.841,32.097 41.125,11.381 Z"
         id="path47"
         inkscape:connector-curvature="0"
         style="opacity:0.5;fill:url(#SVGID_4_)" /><linearGradient
         id="SVGID_5_"
         gradientUnits="userSpaceOnUse"
         x1="2.7323999"
         y1="44.382801"
         x2="35.503399"
         y2="44.382801"><stop
           offset="0"
           style="stop-color:#6F373D"
           id="stop49" /><stop
           offset="1"
           style="stop-color:#7A1719"
           id="stop51" /></linearGradient><path
         clip-path="url(#SVGID_2_)"
         d="m 32.942,57.052 c 3.688,0.761 3.541,2.778 -1.408,3.121 C 7.953,61.521 0.052,36.574 3.506,28.539 4.075,28.656 4.251,51.132 32.942,57.052 Z"
         id="path54"
         inkscape:connector-curvature="0"
         style="fill:url(#SVGID_5_)" /><radialGradient
         id="SVGID_6_"
         cx="26.919901"
         cy="41.986301"
         r="14.23"
         gradientUnits="userSpaceOnUse"><stop
           offset="0.1176"
           style="stop-color:#98183D"
           id="stop56" /><stop
           offset="1"
           style="stop-color:#7C191C;stop-opacity:0"
           id="stop58" /></radialGradient><path
         clip-path="url(#SVGID_2_)"
         d="M 41.977,47.365 C 39.708,53.717 31.127,56.457 22.812,53.486 14.496,50.515 9.594,42.959 11.863,36.607 c 2.269,-6.352 10.85,-9.092 19.165,-6.12 8.316,2.97 13.218,10.527 10.949,16.878 z"
         id="path61"
         inkscape:connector-curvature="0"
         style="fill:url(#SVGID_6_)" /><radialGradient
         id="SVGID_7_"
         cx="0.75980002"
         cy="133.1543"
         r="14.2301"
         gradientTransform="matrix(0.7871,0.5362,-0.0171,0.3764,16.366,-0.7445)"
         gradientUnits="userSpaceOnUse"><stop
           offset="0.3"
           style="stop-color:#8E5264"
           id="stop63" /><stop
           offset="0.6723"
           style="stop-color:#853540;stop-opacity:0.4682"
           id="stop65" /><stop
           offset="1"
           style="stop-color:#7C191C;stop-opacity:0"
           id="stop67" /></radialGradient><path
         clip-path="url(#SVGID_2_)"
         d="M 26.404,60.659 C 24.468,62.748 17.649,59.573 11.175,53.568 4.7,47.563 1.021,41.003 2.958,38.914 c 1.937,-2.087 8.755,1.088 15.229,7.094 6.475,6.003 10.154,12.564 8.217,14.651 z"
         id="path70"
         inkscape:connector-curvature="0"
         style="fill:url(#SVGID_7_)" /><linearGradient
         id="SVGID_8_"
         gradientUnits="userSpaceOnUse"
         x1="11.2061"
         y1="42.214802"
         x2="36.7598"
         y2="49.847801"
         gradientTransform="matrix(0.939,0.3439,-0.3439,0.939,13.2776,-27.0483)"><stop
           offset="0"
           style="stop-color:#FFE1D4"
           id="stop72" /><stop
           offset="0.3353"
           style="stop-color:#FBCDBD;stop-opacity:0.6647"
           id="stop74" /><stop
           offset="1"
           style="stop-color:#F4A792;stop-opacity:0"
           id="stop76" /></linearGradient><path
         clip-path="url(#SVGID_2_)"
         d="M 38.687,32.245 C 34.995,42.327 24.758,47.85 15.823,44.577 6.888,41.306 2.637,30.479 6.329,20.396 10.021,10.312 20.258,4.792 29.194,8.063 c 8.935,3.272 13.185,14.099 9.493,24.182 z"
         id="path79"
         inkscape:connector-curvature="0"
         style="opacity:0.6;fill:url(#SVGID_8_)" /><linearGradient
         id="SVGID_9_"
         gradientUnits="userSpaceOnUse"
         x1="3.4735999"
         y1="18.325199"
         x2="26.378901"
         y2="18.325199"><stop
           offset="0"
           style="stop-color:#F1B9B5"
           id="stop81" /><stop
           offset="1"
           style="stop-color:#F4A792;stop-opacity:0"
           id="stop83" /></linearGradient><path
         clip-path="url(#SVGID_2_)"
         d="M 4.223,30.089 C 2.647,28.513 3.19,20.267 9.437,14.027 15.685,7.786 24.619,5.26 26.194,6.837 27.768,8.414 18.921,10.113 12.672,16.354 6.426,22.594 5.797,31.666 4.223,30.089 Z"
         id="path86"
         inkscape:connector-curvature="0"
         style="opacity:0.7;fill:url(#SVGID_9_)" /><radialGradient
         id="SVGID_10_"
         cx="57.312"
         cy="85.638702"
         r="7.3635998"
         gradientTransform="matrix(1.0849,0.6597,-0.4481,0.7369,18.0307,-91.4798)"
         gradientUnits="userSpaceOnUse"><stop
           offset="0"
           style="stop-color:#FFE6D4;stop-opacity:0.7"
           id="stop88" /><stop
           offset="1"
           style="stop-color:#FF987F;stop-opacity:0"
           id="stop90" /></radialGradient><path
         clip-path="url(#SVGID_2_)"
         d="M 49.705,14.224 C 47.856,17.265 42.833,17.586 38.486,14.942 34.139,12.299 32.112,7.692 33.962,4.651 35.811,1.61 40.834,1.29 45.181,3.933 c 4.347,2.643 6.373,7.25 4.524,10.291 z"
         id="path93"
         inkscape:connector-curvature="0"
         style="opacity:0.8;fill:url(#SVGID_10_)" /><radialGradient
         id="SVGID_11_"
         cx="40.047901"
         cy="-30.4888"
         r="7.3638"
         gradientTransform="matrix(1.1015,-0.6316,0.3539,0.6171,-13.6555,57.7311)"
         gradientUnits="userSpaceOnUse"><stop
           offset="0"
           style="stop-color:#FFC8A9;stop-opacity:0.7"
           id="stop95" /><stop
           offset="1"
           style="stop-color:#FF987F;stop-opacity:0"
           id="stop97" /></radialGradient><path
         clip-path="url(#SVGID_2_)"
         d="m 27.658,9.039 c 1.46,2.546 -0.934,6.663 -5.348,9.193 -4.414,2.531 -9.175,2.518 -10.636,-0.028 -1.459,-2.546 0.935,-6.662 5.349,-9.193 4.414,-2.531 9.176,-2.518 10.635,0.028 z"
         id="path100"
         inkscape:connector-curvature="0"
         style="opacity:0.8;fill:url(#SVGID_11_)" /><radialGradient
         id="SVGID_12_"
         cx="3.6099"
         cy="-85.425797"
         r="15.5912"
         gradientTransform="matrix(0.7312,-0.227,0.0724,0.2331,26.2005,30.0857)"
         gradientUnits="userSpaceOnUse"><stop
           offset="0"
           style="stop-color:#FFFFFF;stop-opacity:0.7"
           id="stop102" /><stop
           offset="1"
           style="stop-color:#FF987F;stop-opacity:0"
           id="stop104" /></radialGradient><path
         clip-path="url(#SVGID_2_)"
         d="m 34.217,5.765 c 0.613,1.979 -4.065,5.189 -10.451,7.171 -6.385,1.982 -12.06,1.985 -12.673,0.006 -0.615,-1.978 4.064,-5.188 10.45,-7.171 6.385,-1.981 12.06,-1.984 12.674,-0.006 z"
         id="path107"
         inkscape:connector-curvature="0"
         style="fill:url(#SVGID_12_)" /><radialGradient
         id="SVGID_13_"
         cx="43.392601"
         cy="40.193401"
         r="17.603399"
         gradientUnits="userSpaceOnUse"><stop
           offset="0"
           style="stop-color:#FF151B;stop-opacity:0.7"
           id="stop109" /><stop
           offset="1"
           style="stop-color:#FF987F;stop-opacity:0"
           id="stop111" /></radialGradient><ellipse
         clip-path="url(#SVGID_2_)"
         cx="43.391998"
         cy="40.193001"
         rx="17.667"
         ry="17.540001"
         id="ellipse114"
         style="fill:url(#SVGID_13_)" /><radialGradient
         id="SVGID_14_"
         cx="-11.2915"
         cy="22.429701"
         r="16.441299"
         gradientTransform="matrix(1.1045,2.670288e-5,0.0313,1.105,17.6933,10.2603)"
         gradientUnits="userSpaceOnUse"><stop
           offset="0"
           style="stop-color:#6A0002;stop-opacity:0.7"
           id="stop116" /><stop
           offset="1"
           style="stop-color:#FF987F;stop-opacity:0"
           id="stop118" /></radialGradient><path
         clip-path="url(#SVGID_2_)"
         d="M 23.807,31.782 C 25.759,42.476 19.334,52.606 9.457,54.409 -0.42,56.211 -10.008,49.001 -11.959,38.307 -13.91,27.613 -7.485,17.484 2.393,15.682 c 9.875,-1.802 19.463,5.406 21.414,16.1 z"
         id="path121"
         inkscape:connector-curvature="0"
         style="fill:url(#SVGID_14_)" /><g
         clip-path="url(#SVGID_2_)"
         id="g137"><path
           d="M 9.931,25.246 9.568,24.52 v 4.225 l 0.11,0.826 H 8.666 V 23.344 L 8.523,22.33 h 0.726 l 3.279,4.676 2.97,-4.676 h 0.616 v 6.414 l 0.11,0.826 h -1.1 v -5.094 l -0.385,0.77 -2.255,3.51 z"
           id="path123"
           inkscape:connector-curvature="0"
           style="fill:#ffffff" /><path
           d="m 19.556,28.744 0.11,0.826 h -1.1 v -6.227 l -0.143,-1.014 h 1.133 z"
           id="path125"
           inkscape:connector-curvature="0"
           style="fill:#ffffff" /><path
           d="m 25.75,29.57 -2.762,-3.664 v 2.838 l 0.11,0.826 h -1.101 v -6.227 l -0.143,-1.014 h 1.133 v 3.443 l 2.233,-2.729 0.319,-0.715 h 1.419 l -2.86,3.434 2.959,3.807 H 25.75 Z"
           id="path127"
           inkscape:connector-curvature="0"
           style="fill:#ffffff" /><path
           d="m 29.896,22.33 0.671,-0.143 2.245,6.172 0.55,1.211 H 32.163 L 31.47,27.677 H 28.775 L 28.06,29.57 h -0.957 z m -0.825,4.512 h 2.124 l -0.914,-2.531 -0.11,-0.428 -0.132,0.439 z"
           id="path129"
           inkscape:connector-curvature="0"
           style="fill:#ffffff" /><path
           d="m 40.523,28.744 0.066,0.826 h -0.517 l -4.125,-4.621 -0.473,-0.715 v 4.51 l 0.11,0.826 H 34.572 V 23.343 L 34.429,22.329 H 35.1 l 4.038,4.578 0.484,0.715 v -4.279 l -0.143,-1.014 h 1.045 v 6.415 z"
           id="path131"
           inkscape:connector-curvature="0"
           style="fill:#ffffff" /><path
           d="m 48.487,25.906 c 0,2.057 -1.309,3.664 -3.355,3.664 h -2.266 v -6.227 l -0.143,-1.014 h 2.739 c 1.529,10e-4 3.025,1.124 3.025,3.577 z m -4.632,-2.783 v 5.654 h 1.408 c 1.254,0 2.156,-1.275 2.156,-2.805 0,-1.551 -0.902,-2.85 -2.156,-2.85 h -1.408 z"
           id="path133"
           inkscape:connector-curvature="0"
           style="fill:#ffffff" /><path
           d="m 51.203,28.744 0.11,0.826 H 50.212 V 23.343 L 50.07,22.33 h 1.133 z"
           id="path135"
           inkscape:connector-curvature="0"
           style="fill:#ffffff" /></g><g
         clip-path="url(#SVGID_2_)"
         id="g149"><path
           d="m 15.126,38.617 c 0,1.229 -0.59,2.369 -1.959,2.369 -0.16,0 -0.34,-0.021 -0.54,-0.061 l 0.05,-0.879 c 0.17,0.079 0.33,0.13 0.49,0.13 0.649,0 1.06,-0.72 1.06,-1.56 V 33.34 l -0.13,-0.919 h 1.029 z"
           id="path139"
           inkscape:connector-curvature="0"
           style="fill:#ffffff" /><path
           d="m 18.655,32.421 0.61,-0.13 2.039,5.606 0.5,1.1 h -1.089 l -0.63,-1.719 h -2.449 l -0.649,1.719 h -0.87 z m -0.749,4.098 h 1.929 l -0.829,-2.299 -0.1,-0.39 -0.12,0.399 z"
           id="path141"
           inkscape:connector-curvature="0"
           style="fill:#ffffff" /><path
           d="m 24.695,32.421 c 1.099,0 2.159,0.63 2.159,1.979 0,1.14 -1.06,2.139 -2.499,2.139 h -0.49 v 1.709 l 0.1,0.75 h -1 V 33.34 l -0.13,-0.919 z m -0.18,3.378 c 0.74,0 1.389,-0.54 1.389,-1.399 0,-0.819 -0.649,-1.239 -1.389,-1.239 H 23.866 V 35.8 h 0.649 z"
           id="path143"
           inkscape:connector-curvature="0"
           style="fill:#ffffff" /><path
           d="m 29.385,32.421 0.61,-0.13 2.039,5.606 0.5,1.1 h -1.089 l -0.63,-1.719 h -2.449 l -0.649,1.719 h -0.87 z m -0.749,4.098 h 1.929 l -0.829,-2.299 -0.1,-0.39 -0.12,0.399 z"
           id="path145"
           inkscape:connector-curvature="0"
           style="fill:#ffffff" /><path
           d="m 39.043,38.247 0.06,0.75 h -0.47 L 34.885,34.8 34.455,34.15 v 4.098 l 0.1,0.75 H 33.636 V 33.34 l -0.13,-0.919 h 0.609 l 3.668,4.157 0.44,0.65 V 33.34 l -0.13,-0.919 h 0.949 v 5.826 z"
           id="path147"
           inkscape:connector-curvature="0"
           style="fill:#ffffff" /></g><path
         id="swoosh"
         clip-path="url(#SVGID_2_)"
         d="m 45.452,48.608 c 3.661,-1.87 7.688,-5.07 8.831,-10.114 0.496,-4.947 -3.375,-7.076 -6.212,-7.076 -1.167,0.027 -2.454,0.188 -3.41,0.527 -2.211,1.074 -2.889,1.926 -3.373,3.26 -0.348,0.959 -0.402,2.277 -0.079,3.411 0.323,1.134 1.983,2.606 3.122,2.597 1.139,-0.009 1.59,-0.195 1.349,-1.704 C 45.439,38 44.655,37.19 44.537,36.763 c -0.251,-0.909 -0.003,-2.12 0.976,-2.766 2.208,-1.397 3.76,-0.562 4.942,0.556 0.565,0.536 1.525,1.686 1.519,3.34 -0.005,1.307 -0.614,2.929 -2.499,4.813 -1.128,1.215 -2.551,2.343 -4.087,2.915 -2.743,1.022 -7.414,1.854 -15.667,1.835 C 21.77,47.438 16.435,45.557 13.095,43.33 8.453,40.234 7.498,36.642 7.242,37.958 c -2,11.334 12.587,13.842 22.875,13.873 5.404,0.017 12.264,-1.653 15.335,-3.223 z"
         inkscape:connector-curvature="0"
         style="fill:#ffffff" /></g></g><g
     id="Layer_5"
     display="none"
     style="display:none"
     transform="translate(0,-24)" /></svg>