<svg id="Capa_1" data-name="Capa 1" xmlns="http://www.w3.org/2000/svg" viewBox="0 0 533 400"><defs><style>.cls-1{fill:#4e4897;}.cls-2{fill:#fff;}.cls-3{fill:none;}</style></defs><path class="cls-1" d="M291.15,16.53a10.94,10.94,0,0,0-6.43.73l-.1,0-.11.05a10.69,10.69,0,0,0-5.95,8L272,60.44A10.78,10.78,0,0,0,280.54,73l220.87,41.62a10.72,10.72,0,0,0,12.51-8.55l6.76-35.86a10.72,10.72,0,0,0-8.54-12.51Z"/><path class="cls-2" d="M319,32.85l-6.63,35.2a4.39,4.39,0,0,1-8.15,1.39,3.19,3.19,0,0,1-.32-.59L291,41.32l-4.13,21.93a4.42,4.42,0,1,1-8.68-1.64l6.64-35.23a4.38,4.38,0,0,1,2.44-3.32,4.47,4.47,0,0,1,5.88,2.11L306.21,53l4.09-21.75a4.38,4.38,0,0,1,5.12-3.49A4.46,4.46,0,0,1,319,32.85Z"/><path class="cls-2" d="M346.17,50.57a14.69,14.69,0,0,0-10-7,15.47,15.47,0,0,0-12.12,2.84,17,17,0,0,0-6.58,10.45,16.45,16.45,0,0,0,2.33,12.23,15.47,15.47,0,0,0,10.24,7,14.68,14.68,0,0,0,11.8-2.88,16,16,0,0,0,6.66-10.52A16.31,16.31,0,0,0,346.17,50.57ZM331.71,67.43A7.36,7.36,0,0,1,327,64.56a9,9,0,0,1-.83-6.07,8.69,8.69,0,0,1,2.94-5.22,7.88,7.88,0,0,1,5.44-1A7.63,7.63,0,0,1,339,55.16a8.22,8.22,0,0,1,1,5.94,8.39,8.39,0,0,1-3.15,5.31A7,7,0,0,1,331.71,67.43Z"/><path class="cls-2" d="M379.43,58.22l-14.34,21.6a4.3,4.3,0,0,1-4.36,1.87,4.13,4.13,0,0,1-3.45-3.36L351.9,53a4.06,4.06,0,0,1,.51-3.1,4.4,4.4,0,0,1,2.8-1.93,3.71,3.71,0,0,1,2.91.42,4.56,4.56,0,0,1,2.1,2.88l3.34,15.38,8.75-13.09a4.42,4.42,0,0,1,2.83-1.92,3.93,3.93,0,0,1,3.05.66,4.39,4.39,0,0,1,1.91,2.82A4.05,4.05,0,0,1,379.43,58.22Z"/><path class="cls-2" d="M409.67,73c1.13-8.81-4.25-16.36-12.8-18A16.38,16.38,0,0,0,378,68.18h0a16.28,16.28,0,0,0,12.78,19.16,16.59,16.59,0,0,0,12.34-2.09A3.54,3.54,0,0,0,404.75,83a4.39,4.39,0,0,0-.53-3.14,3.7,3.7,0,0,0-2.46-1.62,4.52,4.52,0,0,0-3.56.57,9,9,0,0,1-5.77.22,8.51,8.51,0,0,1-4.68-3.33l-.05-.09a6,6,0,0,1-1-2.47l17.88,3.37a4,4,0,0,0,4.76-2.43,2.58,2.58,0,0,0,.24-.77Zm-21.84-7.07a7.76,7.76,0,0,1,7.55-3.08A9.74,9.74,0,0,1,402,68.56Z"/><path class="cls-2" d="M443.83,51.29a4.41,4.41,0,0,0-5.17,3.48l-1.8,9.55a15.56,15.56,0,0,0-6.76-3.07A16.47,16.47,0,0,0,424,93.61a15.9,15.9,0,0,0,8.13-.65,4.39,4.39,0,0,0,8.44-.69l6.76-35.86A4.4,4.4,0,0,0,443.83,51.29Zm-9.71,27.53A7.57,7.57,0,0,1,431,83.7a6.82,6.82,0,0,1-5.35,1.23,7,7,0,0,1-4.55-3.11,7.88,7.88,0,0,1,2-10.66A6.84,6.84,0,0,1,433,73,7.63,7.63,0,0,1,434.12,78.82Z"/><path class="cls-2" d="M474.81,69.67a4.24,4.24,0,0,0-4,1.46,15,15,0,0,0-7.17-3.57,15.31,15.31,0,0,0-12,2.78,16.6,16.6,0,0,0-6.54,10.55,16.83,16.83,0,0,0,2.26,12.2,15.39,15.39,0,0,0,10.15,6.83,15.08,15.08,0,0,0,8-.67,4.3,4.3,0,0,0,8.28-.66l4.48-23.81A4.35,4.35,0,0,0,474.81,69.67ZM459.12,91.36a6.75,6.75,0,0,1-4.5-2.94,8.26,8.26,0,0,1-1-5.92,8,8,0,0,1,3.05-5.14l.05,0A6.46,6.46,0,0,1,462,76.11a6.67,6.67,0,0,1,4.48,3.09,8,8,0,0,1,1,5.91,8.23,8.23,0,0,1-3.11,5.13A6.89,6.89,0,0,1,459.12,91.36Z"/><path class="cls-2" d="M511,63.94a4.42,4.42,0,0,0-5.18,3.48L504,77a15.47,15.47,0,0,0-6.75-3.07,16.47,16.47,0,0,0-6.09,32.36,16,16,0,0,0,8.12-.65,4.4,4.4,0,0,0,8.44-.69l6.76-35.86A4.39,4.39,0,0,0,511,63.94ZM492.77,97.58a7,7,0,0,1-4.55-3.12,7.87,7.87,0,0,1,2-10.65,6.84,6.84,0,0,1,9.91,1.88,7.89,7.89,0,0,1-2,10.66A6.86,6.86,0,0,1,492.77,97.58Z"/><rect class="cls-3" x="515.06" width="17.94" height="17.94"/></svg>