<?xml version="1.0" encoding="UTF-8" standalone="no"?>
<!-- Created with Inkscape (http://www.inkscape.org/) -->

<svg
   xmlns:dc="http://purl.org/dc/elements/1.1/"
   xmlns:cc="http://creativecommons.org/ns#"
   xmlns:rdf="http://www.w3.org/1999/02/22-rdf-syntax-ns#"
   xmlns:svg="http://www.w3.org/2000/svg"
   xmlns="http://www.w3.org/2000/svg"
   xmlns:sodipodi="http://sodipodi.sourceforge.net/DTD/sodipodi-0.dtd"
   xmlns:inkscape="http://www.inkscape.org/namespaces/inkscape"
   version="1.1"
   id="svg5078"
   width="341.33334"
   height="341.33334"
   viewBox="0 0 341.33334 341.33334"
   sodipodi:docname="safari-pinned-tab.svg"
   inkscape:version="0.92.1 r15371">
  <metadata
     id="metadata5084">
    <rdf:RDF>
      <cc:Work
         rdf:about="">
        <dc:format>image/svg+xml</dc:format>
        <dc:type
           rdf:resource="http://purl.org/dc/dcmitype/StillImage" />
        <dc:title></dc:title>
      </cc:Work>
    </rdf:RDF>
  </metadata>
  <defs
     id="defs5082" />
  <sodipodi:namedview
     pagecolor="#ffffff"
     bordercolor="#666666"
     borderopacity="1"
     objecttolerance="10"
     gridtolerance="10"
     guidetolerance="10"
     inkscape:pageopacity="0"
     inkscape:pageshadow="2"
     inkscape:window-width="2560"
     inkscape:window-height="1017"
     id="namedview5080"
     showgrid="false"
     inkscape:zoom="0.69140623"
     inkscape:cx="582.6707"
     inkscape:cy="172.61447"
     inkscape:window-x="1912"
     inkscape:window-y="-8"
     inkscape:window-maximized="1"
     inkscape:current-layer="svg5078" />
  <path
     style="fill:#000000;stroke-width:1.33333337"
     d="M 14.531383,337.62087 C 8.7784636,334.61551 6.7178209,332.55487 3.7124602,326.80195 L 0,319.6955 V 170.66667 21.637844 L 3.7124602,14.531383 C 6.7178209,8.7784636 8.7784636,6.7178209 14.531383,3.7124602 L 21.637844,0 H 170.66667 319.6955 l 7.10645,3.7124602 c 5.75292,3.0053607 7.81356,5.0660034 10.81892,10.8189228 l 3.71247,7.106461 V 170.66667 319.6955 l -3.71247,7.10645 c -3.00536,5.75292 -5.066,7.81356 -10.81892,10.81892 l -7.10645,3.71247 H 170.66667 21.637844 Z M 68.966465,237.46856 c 8.975246,-25.22561 16.550582,-46.09672 16.834082,-46.38021 0.283499,-0.28351 6.81792,-0.34436 14.520933,-0.13524 l 14.00549,0.38023 -15.312952,43.1417 c -19.127031,53.88726 -19.758811,49.74339 7.505062,49.22589 l 19.36514,-0.36759 39.06674,-109.8872 c 37.01996,-104.130007 38.95988,-110.050279 37.02716,-113 -1.979,-3.020322 -2.60374,-3.112806 -21.02785,-3.112806 H 161.96202 L 145.39039,104 128.81877,150.66667 h -14.55203 c -12.96112,0 -14.459969,-0.23993 -13.70986,-2.19469 0.4632,-1.2071 7.42423,-20.73304 15.46895,-43.39099 14.15021,-39.854079 14.55578,-41.304626 12.44804,-44.52145 l -2.17873,-3.325159 -18.81424,0.896525 C 97.133074,58.623997 88.626803,59.096261 88.578079,59.180384 88.529359,59.264504 70.961323,108.76616 49.538006,169.18407 12.415543,273.87661 10.693513,279.15303 12.865058,281.55255 c 2.061046,2.27744 4.06847,2.48259 21.030657,2.14928 l 18.752121,-0.36849 z M 208.822,239 l 15.94076,-45 22.11482,-0.3648 22.11481,-0.3648 5.66872,-16.07629 c 8.04686,-22.82055 8.38726,-22.34736 -16.42018,-22.82487 L 239.05863,154 l 10.00832,-28.30741 10.00834,-28.307409 28.11026,-0.359256 28.11027,-0.359256 5.90104,-16.50915 c 4.40897,-12.334866 5.55705,-17.054671 4.54057,-18.666667 -1.20404,-1.909451 -6.71952,-2.197774 -47.96992,-2.507635 L 231.15806,58.633101 192.1248,168.47439 c -35.03754,98.59722 -38.85156,110.13224 -37.25829,112.68346 1.67004,2.67416 2.84603,2.84216 19.89485,2.84216 h 18.1199 z"
     id="path5662"
     inkscape:connector-curvature="0" />
</svg>
