<?xml version="1.0" encoding="UTF-8" standalone="no"?>
<!-- Created with Inkscape (http://www.inkscape.org/) -->

<svg
   xmlns:dc="http://purl.org/dc/elements/1.1/"
   xmlns:cc="http://creativecommons.org/ns#"
   xmlns:rdf="http://www.w3.org/1999/02/22-rdf-syntax-ns#"
   xmlns:svg="http://www.w3.org/2000/svg"
   xmlns="http://www.w3.org/2000/svg"
   xmlns:sodipodi="http://sodipodi.sourceforge.net/DTD/sodipodi-0.dtd"
   xmlns:inkscape="http://www.inkscape.org/namespaces/inkscape"
   version="1.1"
   id="svg5078"
   width="198.66667"
   height="198.91666"
   viewBox="0 0 198.66667 198.91665"
   sodipodi:docname="safari-pinned-tab.svg"
   inkscape:version="0.92.1 r15371">
  <metadata
     id="metadata5084">
    <rdf:RDF>
      <cc:Work
         rdf:about="">
        <dc:format>image/svg+xml</dc:format>
        <dc:type
           rdf:resource="http://purl.org/dc/dcmitype/StillImage" />
        <dc:title></dc:title>
      </cc:Work>
    </rdf:RDF>
  </metadata>
  <defs
     id="defs5082" />
  <sodipodi:namedview
     pagecolor="#ffffff"
     bordercolor="#666666"
     borderopacity="1"
     objecttolerance="10"
     gridtolerance="10"
     guidetolerance="10"
     inkscape:pageopacity="0"
     inkscape:pageshadow="2"
     inkscape:window-width="2560"
     inkscape:window-height="1017"
     id="namedview5080"
     showgrid="false"
     inkscape:zoom="1.4142136"
     inkscape:cx="7.0303837"
     inkscape:cy="72.381668"
     inkscape:window-x="1912"
     inkscape:window-y="-8"
     inkscape:window-maximized="1"
     inkscape:current-layer="svg5078"
     fit-margin-top="0"
     fit-margin-left="0"
     fit-margin-right="0"
     fit-margin-bottom="0" />
  <path
     style="fill:#000000;stroke-width:1.33333337"
     d="M 29.333335,198.11055 C 18.367545,195.35152 8.851095,187.55951 3.143732,176.66667 L 0,170.66667 V 99.333329 27.999999 l 3.563088,-6.75127 C 8.053595,12.740199 15.708745,5.769419 24.128545,2.521819 30.237425,0.165562 35.174775,0 99.333335,0 c 64.158555,0 69.095895,0.165562 75.204775,2.521819 8.41981,3.2476 16.07496,10.21838 20.56546,18.72691 l 3.56309,6.75127 v 71.33333 71.333341 l -3.14373,6 c -4.28603,8.18013 -10.24404,14.22422 -18.1896,18.45238 l -6.66667,3.54762 -68.66667,0.22514 c -37.766655,0.12387 -70.466655,-0.22774 -72.666655,-0.78126 z m 68.80103,-46.98115 c 8.750955,-2.96816 11.742775,-6.28061 18.589025,-20.58121 l 6.64562,-13.88152 h 10.89453 c 8.34626,0 12.24896,-0.65567 16.68508,-2.80316 6.85934,-3.32055 12.22712,-9.8592 13.24549,-16.134751 1.05983,-6.53088 -1.74924,-8.26115 -14.71213,-9.06209 -9.01739,-0.55716 -10.86466,-1.06047 -11.24596,-3.06405 -0.99646,-5.2362 1.96476,-6.26929 17.97005,-6.26929 9.77954,0 16.74528,-0.64394 19.50342,-1.80297 6.07906,-2.55456 12.75232,-9.87055 14.58601,-15.99087 1.44343,-4.81776 1.32635,-5.41464 -1.51323,-7.71398 -2.75214,-2.22856 -5.62673,-2.49218 -27.17569,-2.49218 -21.76403,0 -24.65883,0.2715 -29.88854,2.80316 -3.1848,1.54174 -7.20873,4.69174 -8.94206,7 -4.55977,6.07221 -38.109315,81.297461 -38.109315,85.449221 0,5.32345 5.59925,7.21252 13.4677,4.54369 z m -72.13437,-4.49663 c 5.80686,-2.98368 9.81227,-8.35553 16.66667,-22.3525 l 6.66667,-13.6136 6.11678,-0.39755 c 9.81742,-0.63805 10.12771,1.07861 3.04835,16.86508 -6.73005,15.00753 -6.93028,19.34056 -0.99795,21.59603 5.14105,1.95462 13.30654,-0.793 19.28334,-6.48868 4.24156,-4.04207 8.33268,-12.0299 23.1833,-45.264891 9.947485,-22.26202 18.032835,-42.11865 18.032835,-44.28642 0,-6.82011 -8.03637,-8.77738 -17.05311,-4.15333 -7.171955,3.678 -10.173985,7.44465 -16.225425,20.35807 l -5.39604,11.51485 -6.77662,0.46175 c -3.90602,0.26615 -7.29665,-0.16511 -8.00424,-1.01808 -0.78902,-0.95111 0.74802,-5.93074 4.30207,-13.93765 5.11436,-11.52214 5.38721,-12.71286 3.63281,-15.8535 -1.20146,-2.15077 -3.29667,-3.5572 -5.71501,-3.83625 -5.21583,-0.60185 -14.23981,3.05122 -18.48628,7.48358 -1.95029,2.03567 -11.87647,22.20139 -22.34817,45.40189 -19.785734,43.836111 -20.670142,46.916701 -14.22342,49.543201 3.35006,1.36488 9.35517,0.51538 14.29344,-2.022 z"
     id="path4493"
     inkscape:connector-curvature="0" />
</svg>
